<?xml version="1.0" standalone="no"?>
<!DOCTYPE svg PUBLIC "-//W3C//DTD SVG 1.1//EN" "http://www.w3.org/Graphics/SVG/1.1/DTD/svg11.dtd" >
<svg xmlns="http://www.w3.org/2000/svg">
<metadata></metadata>
<defs>
<font id="ddbold" horiz-adv-x="1138" >
<font-face units-per-em="2048" ascent="1638" descent="-410" />
<missing-glyph horiz-adv-x="569" />
<glyph unicode="&#xfb01;" horiz-adv-x="1290" d="M92 0v29h135v821h-135v29h135q0 156 15.5 243.5t66.5 171.5q129 197 404 197q78 0 152.5 -16.5t139 -68.5t64.5 -132q0 -53 -35 -83t-88 -30q-127 0 -127 90q0 35 11.5 78t11.5 62q0 72 -121 71q-244 0 -244 -319v-264h604v-850h138v-29h-512v29h124v821h-354v-821h125 v-29h-510z" />
<glyph unicode="&#xfb02;" horiz-adv-x="1251" d="M78 0v29h137v821h-137v29h137q0 219 10.5 296.5t59.5 153.5q106 162 358 162q57 0 153.5 -16.5t104.5 -16.5h152v-1429h135v-29h-500v29h115v1140q-27 8 -39 13.5t-29.5 26t-17.5 48.5q0 10 15.5 61.5t15.5 59.5q0 84 -123 84q-55 0 -89 -23.5t-48.5 -71.5t-18.5 -88 t-4 -103v-297h147v-29h-147v-821h113v-29h-500z" />
<glyph horiz-adv-x="2048" />
<glyph horiz-adv-x="2048" />
<glyph unicode="&#xd;" horiz-adv-x="681" />
<glyph unicode=" "  horiz-adv-x="569" />
<glyph unicode="&#x09;" horiz-adv-x="569" />
<glyph unicode="&#xa0;" horiz-adv-x="569" />
<glyph unicode="!" horiz-adv-x="606" d="M158 125q0 59 43 102t102 43t102.5 -43t43.5 -102t-43.5 -102t-102.5 -43t-102 43t-43 102zM170 1352q0 61 37 100t96 39t96 -39t37 -100q0 -8 -14 -127l-98 -813h-41l-99 813q-14 119 -14 127z" />
<glyph unicode="&#x22;" horiz-adv-x="757" d="M147 1391q0 100 80 100t80 -100q0 -29 -8 -86l-53 -437h-37l-53 437q-8 57 -9 86zM451 1391q0 100 79.5 100t79.5 -100q0 -29 -8 -86l-53 -437h-37l-53 437q-8 57 -8 86z" />
<glyph unicode="#" d="M-8 485l14 37h273l147 406h-272l14 37h272l178 493h44l-179 -493h346l179 493h43l-179 -493h273l-15 -37h-272l-147 -406h272l-14 -37h-273l-176 -485h-43l176 485h-346l-176 -485h-43l176 485h-272zM322 522h346l147 406h-346z" />
<glyph unicode="$" horiz-adv-x="1290" d="M115 0v455h28q39 -209 166 -334q125 -123 297 -123v629q-86 27 -136 44t-120.5 55t-109.5 79t-68 109.5t-29 154.5q0 162 131 286t332 136v121h35v-121q102 -2 205.5 -39t122.5 -37q27 0 37 8.5t20 34.5h35v-389h-29q-27 78 -41 115t-48 100.5t-69.5 94t-96 56 t-136.5 27.5v-530q242 -74 326 -123q209 -117 209 -342q0 -199 -149.5 -342t-385.5 -156v-143h-35v143q-96 2 -239.5 40t-157.5 38q-27 0 -40 -9t-24 -38h-30zM297 1206q0 -104 79.5 -164.5t229.5 -101.5v522q-141 -8 -225 -86t-84 -170zM641 -2q96 2 169 37t108.5 87 t52 100t16.5 93q0 127 -87 189.5t-259 113.5v-620z" />
<glyph unicode="%" horiz-adv-x="1593" d="M92 1161q0 139 108.5 234.5t244 95.5t244 -95.5t108.5 -234.5t-108.5 -234.5t-244 -95.5t-244 95.5t-108.5 234.5zM289 1161.5q0 -67.5 1 -100.5t9 -80t23.5 -67.5t46 -37t75.5 -16.5t76 16.5t46.5 37t23.5 67.5t9 80t1 100.5t-1 100t-9 80t-23.5 68t-46.5 36.5t-76 16 t-75.5 -16t-46 -36.5t-23.5 -68t-9 -80t-1 -100zM391 -10l770 1501l41 -18l-770 -1502zM797 301q0 139 108.5 234.5t243.5 95.5t243.5 -95.5t108.5 -234.5t-108.5 -234.5t-243.5 -95.5t-243.5 95.5t-108.5 234.5zM993 301q0 -68 1 -100.5t9.5 -79.5t23.5 -67.5t46 -37 t76 -16.5t75.5 16.5t46 37t24 67.5t9.5 79.5t1 100.5t-1 100.5t-9.5 79.5t-24 67.5t-46 37t-75.5 16.5t-76 -16.5t-46 -37t-23.5 -67.5t-9.5 -79.5t-1 -100.5z" />
<glyph unicode="&#x26;" horiz-adv-x="1630" d="M150 418q0 90 33.5 167t104 142.5t120 101t139.5 91.5q-66 174 -66 243q0 125 95.5 226.5t209.5 101.5q84 0 138.5 -51t54.5 -158q0 -155 -178 -272l344 -674q90 129 90 399q0 162 -49 215.5t-164 53.5v28h414v-28q-72 -12 -99.5 -26.5t-47 -68t-23.5 -168.5 q-12 -305 -105 -438l94 -166q33 -59 86 -59q37 0 60.5 36t30 65.5t6.5 49.5q0 16 -6 37h28q6 -18 6 -33q0 -16 -2 -36.5t-16 -64.5t-40 -76.5t-80 -59.5t-128 -27q-80 0 -129 32t-96 91q-53 -43 -84 -62.5t-97.5 -40t-148.5 -20.5q-119 0 -210 34t-143 83t-86 113.5t-45 118 t-11 100.5zM387 631q0 -82 51 -222.5t144.5 -262t185.5 -121.5q78 0 195 92q-31 45 -54 90l-307 596q-8 18 -24.5 52t-20.5 42q-70 -53 -98.5 -81t-50 -74t-21.5 -111zM682 1319q0 -102 106 -285q164 109 164 244q0 74 -34.5 129t-102.5 55q-14 0 -28.5 -3t-42 -14t-45 -44 t-17.5 -82z" />
<glyph unicode="'" horiz-adv-x="569" d="M205 1391q0 100 80 100t80 -100q0 -29 -9 -86l-53 -437h-37l-53 437q-8 57 -8 86z" />
<glyph unicode="(" horiz-adv-x="530" d="M145 442.5q0 204.5 42 398t106.5 328t103.5 200t68 101.5l33 -20q-311 -455 -311 -1007.5t311 -1007.5l-33 -21q-29 37 -68 102.5t-103.5 199.5t-106.5 328t-42 398.5z" />
<glyph unicode=")" horiz-adv-x="530" d="M33 -565q311 455 311 1007.5t-311 1007.5l33 20q29 -37 67.5 -102t103 -199.5t106.5 -328t42 -398t-42 -398.5t-106.5 -328t-103 -199.5t-67.5 -102.5z" />
<glyph unicode="*" horiz-adv-x="987" d="M96 889q0 47 30 73.5t57.5 32.5t86.5 13q84 8 213 43q-96 39 -262 55q-123 15 -123 113q0 47 33 78.5t72 31.5q53 0 87 -34.5t85 -107.5t114 -124q-8 63 -57 182q-47 115 -47 146q0 39 33 69.5t76 30.5t75.5 -30.5t32.5 -69.5q0 -31 -47 -146q-49 -119 -57 -182 q63 51 114.5 124t85 107.5t86.5 34.5q39 0 72 -31.5t33 -78.5q0 -98 -123 -113q-164 -16 -264 -51v-4q129 -35 213 -43q59 -6 86.5 -12.5t57.5 -33t30 -73.5q0 -45 -33 -77t-80 -32q-37 0 -64.5 24.5t-82.5 102.5q-33 49 -131 140q8 -63 57 -183q47 -115 47 -145 q0 -39 -32.5 -70t-75.5 -31t-76 31t-33 70q0 31 47 145q49 119 55 183q-98 -90 -131 -140q-55 -78 -82.5 -102.5t-64.5 -24.5q-49 0 -81 32t-32 77z" />
<glyph unicode="+" horiz-adv-x="1214" d="M115 473v37h471v473h41v-473h471v-37h-471v-473h-41v473h-471z" />
<glyph unicode="," horiz-adv-x="569" d="M113 125q0 72 47 108.5t108 36.5q82 0 135.5 -65.5t53.5 -177.5q0 -61 -20.5 -116.5t-46 -93.5t-73 -78t-75 -59.5t-76.5 -50.5l-14 27q115 80 167 136t52 124q0 57 -31 84q-31 -20 -86 -20q-51 0 -96 36.5t-45 108.5z" />
<glyph unicode="-" horiz-adv-x="757" d="M186 340v201h385v-201h-385z" />
<glyph unicode="." horiz-adv-x="569" d="M139 125q0 59 43 102t102.5 43t102.5 -43t43 -102t-43 -102t-102.5 -43t-102.5 43t-43 102z" />
<glyph unicode="/" horiz-adv-x="606" d="M6 0l553 1470l41 -12l-553 -1470z" />
<glyph unicode="0" d="M70 731q0 59 6 125t22.5 158t52 171t88 150.5t138.5 113.5t192 42q102 0 184.5 -36t133.5 -87t88 -130t54.5 -142.5t27.5 -148.5t11 -124t1 -92q0 -59 -6 -124.5t-22.5 -158t-52.5 -171t-88 -150.5t-138 -114t-193 -42q-102 0 -184 36t-133 87t-88 130t-54.5 142.5 t-27.5 148.5t-11 124t-1 92zM346 731.5q0 -147.5 2 -234.5t9.5 -182.5t21.5 -144.5t38.5 -93t61.5 -60.5t90.5 -16.5t90 16.5t61 60.5t39 93t21.5 144.5t9.5 182.5t2.5 234q0 115 -1 187.5t-4.5 153.5t-9.5 129t-17 97.5t-27.5 76t-40 49t-54.5 30.5t-70 8q-53 0 -90 -16 t-61.5 -60.5t-38.5 -93.5t-21.5 -144t-9.5 -182t-2 -234.5z" />
<glyph unicode="1" d="M199 1180q18 10 60 34.5t57.5 32.5t50 28.5t50 31t43 29t46 32.5t44 34.5t50.5 42t51 46.5h82v-1462h189v-29h-631v29h192v1276q-51 -27 -143 -80.5t-125 -71.5z" />
<glyph unicode="2" d="M61 0v29l13 10q115 111 165 159t131 131t111.5 123t79.5 109.5t65.5 116.5t38 115.5t26.5 137t5 154.5q0 188 -35.5 282.5t-144.5 94.5q-168 0 -168 -159q0 -8 6 -57.5t6 -57.5q0 -90 -116 -90q-125 0 -125 104q0 94 109.5 191.5t314.5 97.5q215 0 322.5 -114.5 t107.5 -282.5q0 -205 -217 -430l-148 -152l-303 -299h451q199 0 211 207h28v-420h-934z" />
<glyph unicode="3" d="M41 291l33 10q8 -45 30.5 -92t62.5 -96.5t110.5 -81t158.5 -31.5q96 0 159.5 35t94.5 102.5t42 139t11 169.5q0 63 -2 98.5t-15 94.5t-40 92t-80 58.5t-129 25.5q-117 0 -246 -82l-16 29q94 59 266 92q33 6 51.5 12t57.5 30t61.5 57.5t41 99t18.5 151.5q0 258 -197 258 q-61 0 -102 -27.5t-41 -84.5q0 -10 8 -63.5t8 -61.5q0 -45 -24.5 -67.5t-46 -26t-58.5 -3.5q-45 0 -79 24t-34 75q0 121 110 192.5t292 71.5q125 0 216 -32t134 -82t61.5 -96t18.5 -91q0 -76 -34 -134.5t-100.5 -98t-136 -65.5t-174.5 -50v-4q487 -78 488 -412 q0 -78 -34 -154.5t-98.5 -145.5t-175 -112t-247.5 -43q-350 1 -424 320z" />
<glyph unicode="4" d="M63 326q47 143 185.5 445t257.5 499q49 80 86 127t70.5 66.5t53 23.5t58.5 4q117 0 117 -66q0 -33 -43 -69q-141 -119 -385 -427t-361 -575h541v525h250v-525h182v-28h-182v-297h182v-29h-612v29h180v297h-580z" />
<glyph unicode="5" d="M94 199q0 115 125 114.5t125 -90.5q0 -6 -5 -47t-5 -49q0 -70 39 -98.5t84 -28.5t70.5 3t66.5 27.5t64.5 70.5t41 138.5t17.5 223.5q0 129 -18.5 214t-55.5 126t-76 55t-96 14q-27 0 -51.5 -5t-43 -11t-38 -20.5t-32.5 -23.5t-29.5 -30.5t-23.5 -30t-21.5 -33 t-17.5 -30.5t-15 -33l-13 -24h-26l137 846h61q29 -29 71 -57.5t122 -60.5t156 -32q160 0 262 143l26 -12q-150 -209 -218 -270.5t-179 -61.5q-86 0 -311 91l-74 -449l4 -4q43 51 70.5 75.5t88 46t146.5 21.5q197 0 334 -119.5t137 -308.5q0 -117 -59.5 -230.5t-183 -195.5 t-283.5 -82q-158 0 -265.5 67.5t-107.5 160.5z" />
<glyph unicode="6" d="M66 614q0 229 85 431t236.5 324t331.5 122q121 0 209 -57.5t88 -167.5q0 -121 -123 -121q-121 0 -121 90q0 27 17.5 76t17.5 65q0 14 -5 30.5t-28.5 36t-64.5 19.5q-70 0 -127.5 -32.5t-94 -95t-63.5 -126t-44.5 -154.5t-25.5 -148.5t-16 -137.5l4 -4q29 39 50.5 60.5 t79.5 47t134 25.5q188 0 327.5 -134t139.5 -327q0 -186 -150.5 -325.5t-338.5 -139.5q-225 0 -371.5 172t-146.5 471zM336 520q0 -143 16.5 -245.5t39 -153.5t59 -81t62.5 -35t62 -5q55 0 89 13.5t68 58.5t49.5 144t15.5 257q0 199 -48.5 297t-156.5 98q-129 0 -201 -94 q-33 -41 -44 -89t-11 -165z" />
<glyph unicode="7" d="M150 1053v405h864q0 -129 -57.5 -371.5t-153.5 -480.5q-150 -369 -233 -502t-191 -133q-135 0 -135 82q0 45 41 86l178 166q201 188 326.5 446.5t162.5 456.5h-637q-117 0 -137 -155h-28z" />
<glyph unicode="8" d="M80 350q0 76 23.5 135.5t74.5 104.5t98.5 73.5t129.5 69.5q-68 37 -106 63.5t-80 69.5t-61.5 100.5t-19.5 133.5q0 172 131 281.5t324 109.5q160 0 272.5 -89t112.5 -220q0 -197 -274 -322q170 -78 253.5 -176t83.5 -238q0 -174 -142 -324.5t-355 -150.5 q-190 0 -327.5 109.5t-137.5 269.5zM303 358q0 -358 242 -358q80 0 138 29.5t89 78t44 98.5t13 101q0 121 -51 190t-168 130l-174 92q-133 -80 -133 -361zM334 1214q0 -66 21.5 -114.5t76.5 -89.5t101.5 -65.5t144.5 -70.5q27 23 41 42.5t30.5 87t16.5 176.5q0 283 -197 282 q-104 0 -169.5 -72t-65.5 -176z" />
<glyph unicode="9" d="M49 1026q0 186 150.5 325.5t339.5 139.5q225 0 371.5 -172t146.5 -471q0 -184 -35 -339t-104.5 -276.5t-186.5 -191.5t-268 -70q-186 0 -262 70t-76 149q0 127 135 127q106 0 107 -84q0 -18 -12.5 -71t-12.5 -70q0 -43 23.5 -64.5t45 -24.5t58.5 -3q92 0 154.5 51 t95.5 150.5t46 217.5t13 279h-4q-86 -133 -258 -133q-188 0 -327.5 134t-139.5 327zM326 989q0 -209 50 -302t154 -93q92 0 157 50t83 136q10 61 10 162q0 143 -16 245.5t-37.5 155t-56.5 81t-60.5 33.5t-62.5 5q-47 0 -83 -16t-70 -63.5t-51 -147t-17 -246.5z" />
<glyph unicode=":" horiz-adv-x="569" d="M139 125q0 59 43 102t102.5 43t102.5 -43t43 -102t-43 -102t-102.5 -43t-102.5 43t-43 102zM139 761.5q0 59.5 43 102.5t102.5 43t102.5 -43t43 -102.5t-43 -102.5t-102.5 -43t-102.5 43t-43 102.5z" />
<glyph unicode=";" horiz-adv-x="569" d="M113 125q0 72 47 108.5t108 36.5q82 0 135.5 -65.5t53.5 -177.5q0 -61 -20.5 -116.5t-46 -93.5t-73 -78t-75 -59.5t-76.5 -50.5l-14 27q115 80 167 136t52 124q0 57 -31 84q-31 -20 -86 -20q-51 0 -96 36.5t-45 108.5zM139 761.5q0 59.5 43 102.5t102.5 43t102.5 -43 t43 -102.5t-43 -102.5t-102.5 -43t-102.5 43t-43 102.5z" />
<glyph unicode="&#x3c;" horiz-adv-x="1214" d="M25 483v17l1163 483v-41l-1096 -450l1096 -451v-41z" />
<glyph unicode="=" horiz-adv-x="1214" d="M115 297v37h983v-37h-983zM115 649v37h983v-37h-983z" />
<glyph unicode="&#x3e;" horiz-adv-x="1214" d="M25 0v41l1097 451l-1097 450v41l1163 -483v-17z" />
<glyph unicode="?" horiz-adv-x="909" d="M123 125q0 59 43 102t102.5 43t102.5 -43t43 -102t-43 -102t-102.5 -43t-102.5 43t-43 102zM137 1270q0 106 89 163.5t206 57.5q174 0 271.5 -106.5t97.5 -266.5q0 -96 -39 -173t-96.5 -118t-112.5 -62.5t-98 -21.5q-113 0 -164 70h-4v-420h-35v481h35q63 -96 131 -96 q76 0 104.5 89t28.5 280q0 182 -26.5 248.5t-100.5 66.5q-51 0 -79 -23.5t-28 -54.5q0 -23 21.5 -55.5t21.5 -62.5q0 -51 -26.5 -71.5t-85.5 -20.5q-45 0 -78 23.5t-33 72.5z" />
<glyph unicode="@" horiz-adv-x="1705" d="M88 692q0 330 250 564.5t602 234.5q303 0 490.5 -172t187.5 -430q0 -215 -128 -391t-284 -176q-164 0 -180 182q-18 -35 -33.5 -56.5t-46.5 -55.5t-77 -52t-103 -18q-41 0 -85 13t-91 42t-78 88t-31 141q0 197 145.5 347.5t309.5 150.5q55 0 93 -15.5t58.5 -46t27.5 -46 t15 -44.5l37 129h174l-139 -477q-18 -63 -18 -108q0 -90 90 -90q102 0 201.5 148t99.5 331q0 236 -170 400.5t-459 164.5q-223 0 -404.5 -111.5t-277.5 -284.5t-96 -366q0 -289 203.5 -482.5t519.5 -193.5q299 0 551 195l26 -35q-264 -201 -589 -201q-334 2 -562.5 203 t-228.5 518zM664 567q0 -193 137 -192q74 0 120 51t83 141q29 70 59.5 178.5t30.5 163.5q0 78 -40 111t-91 33q-121 0 -210 -154t-89 -332z" />
<glyph unicode="A" horiz-adv-x="1554" d="M-53 0v29h174l610 1487h55l646 -1487h176v-29h-688v29h190l-238 549h-491l-227 -549h182v-29h-389zM391 606h471l-241 559z" />
<glyph unicode="B" horiz-adv-x="1402" d="M72 0v29h188v1401h-188v28h309q57 0 170 3t170 3q88 0 170 -17t157.5 -54t122 -105.5t46.5 -163.5q0 -82 -44.5 -147.5t-115 -102t-133 -56t-121.5 -27.5v-9q90 -6 168 -27.5t154.5 -62.5t121.5 -116.5t45 -180.5q0 -113 -58 -195.5t-150.5 -124.5t-183.5 -61.5 t-177 -19.5q-57 0 -171 3t-171 3h-309zM557 29q55 -6 119 -6q143 0 212.5 80.5t69.5 314.5q0 39 -3 72.5t-19 88t-44 93.5t-84 67.5t-132 28.5h-119v-739zM557 797h84q88 0 144.5 23.5t81 69.5t32.5 90t8 112q0 186 -55 265t-205 79q-14 0 -28.5 -1t-33 -3t-28.5 -2v-633z " />
<glyph unicode="C" horiz-adv-x="1478" d="M104 725q0 221 120 401.5t294 272.5t352 92q96 0 225.5 -38t153.5 -38q29 0 43.5 8.5t20.5 34.5h33v-418h-27q-29 88 -55.5 146.5t-77.5 130.5t-130 108.5t-184 36.5q-117 0 -197.5 -38t-126.5 -97t-70.5 -161.5t-32 -200t-7.5 -244.5q0 -414 98.5 -568.5t335.5 -154.5 q172 0 292 128t161 308h33v-434h-33q-18 43 -68 43q-18 0 -152 -37t-235 -37q-305 0 -535.5 222.5t-230.5 533.5z" />
<glyph unicode="D" horiz-adv-x="1669" d="M66 0v29h188v1401h-188v28h188q70 0 209 3t209 3q121 0 235.5 -17t238.5 -68.5t215 -130.5t150.5 -213t59.5 -306t-59.5 -306t-148.5 -212t-208 -129t-225.5 -69.5t-210.5 -18.5q-78 0 -232.5 3t-232.5 3h-188zM551 29q59 -6 108 -6q152 0 263.5 47t170 114.5t93.5 168 t43 179t8 177.5q0 143 -12.5 246.5t-48 198.5t-96 153.5t-162 93.5t-240.5 35q-88 0 -127 -6v-1401z" />
<glyph unicode="E" horiz-adv-x="1478" d="M76 0v29h188v1401h-188v28h1224v-350h-26q-102 322 -387 322h-326v-633h115q141 0 208.5 76.5t100.5 228.5h27v-637h-27q-33 143 -95.5 223t-191.5 80h-137v-739h336q180 0 299 115.5t162 304.5h26v-449h-1308z" />
<glyph unicode="F" horiz-adv-x="1402" d="M76 0v29h188v1401h-188v28h1210v-350h-26q-66 164 -151 243t-239 79h-309v-660h115q141 0 208.5 77t100.5 228h27v-637h-27q-33 143 -95.5 223t-191.5 80h-137v-712h191v-29h-676z" />
<glyph unicode="G" horiz-adv-x="1593" d="M96 725q0 221 120 401.5t294 272.5t352 92q94 0 224.5 -38t154.5 -38q45 0 64 43h34v-418h-30q-110 422 -442 422h-3q-63 0 -117.5 -12t-95.5 -33.5t-73.5 -52.5t-55 -69t-40 -82t-25.5 -91t-15.5 -98t-8.5 -103.5t-3 -104.5q-1 -26 -1 -52t1 -51v-49 q0 -369 100.5 -517.5t333.5 -148.5q74 0 125 23.5t82 59.5t47.5 96.5t21.5 118.5t5 142v78h-211v29h633v-29h-133v-469h-37q-8 47 -68 47q-51 0 -116.5 -31.5t-153.5 -62.5t-197 -31q-305 0 -535.5 222.5t-230.5 533.5z" />
<glyph unicode="H" horiz-adv-x="1705" d="M72 0v29h188v1401h-188v28h673v-28h-188v-672h592v672h-188v28h673v-28h-188v-1401h188v-29h-673v29h188v700h-592v-700h188v-29h-673z" />
<glyph unicode="I" horiz-adv-x="833" d="M80 0v29h188v1401h-188v28h674v-28h-189v-1401h189v-29h-674z" />
<glyph unicode="J" horiz-adv-x="1024" d="M45 190q0 145 162 146q125 0 125 -98q0 -20 -14.5 -84t-14.5 -74q0 -82 90 -82q31 0 50.5 12.5t26.5 37t9 41.5t2 44v1297h-188v28h674v-28h-189v-1012q0 -57 -3 -99.5t-25.5 -114t-62.5 -117.5t-122 -82t-196 -36q-131 0 -227.5 51.5t-96.5 169.5z" />
<glyph unicode="K" horiz-adv-x="1593" d="M86 0v29h188v1401h-188v28h674v-28h-189v-656h17l626 656h-206v28h409v-28h-164l-456 -480l708 -921h127v-29h-684v29h185l-545 716h-17v-716h189v-29h-674z" />
<glyph unicode="L" horiz-adv-x="1478" d="M94 0v29h189v1401h-189v28h674v-28h-188v-1401h338q150 0 274.5 105.5t173.5 328.5h27v-463h-1299z" />
<glyph unicode="M" horiz-adv-x="1896" d="M70 0v29h188v1401h-188v28h526l354 -1020h4l361 1020h512v-28h-189v-1401h189v-29h-672v29h186v1401h-4l-503 -1430h-33l-506 1430h-4v-1401h188v-29h-409z" />
<glyph unicode="N" horiz-adv-x="1517" d="M70 0v29h188v1401h-188v28h483l682 -975h4v947h-188v28h409v-28h-188v-1430h-55l-922 1313h-4v-1284h188v-29h-409z" />
<glyph unicode="O" horiz-adv-x="1705" d="M86 725q0 166 70.5 313.5t182.5 244.5t247 152.5t268 55.5q193 0 366 -90t286.5 -268.5t113.5 -401.5q0 -307 -229.5 -534.5t-536.5 -227.5t-537.5 222.5t-230.5 533.5zM420 725q0 -283 46 -442.5t137 -222t251 -62.5q98 0 172 23.5t120 76t74.5 111.5t43 153.5 t18.5 176.5t4 204q0 84 -2 141.5t-8 131.5t-18.5 124t-33 105t-53 91t-76.5 67t-104.5 45t-136.5 14q-113 0 -192.5 -36.5t-126 -97t-73 -160t-34.5 -200t-8 -243.5z" />
<glyph unicode="P" horiz-adv-x="1327" d="M70 0v29h188v1401h-188v28h188q70 0 209 3t209 3q104 0 200.5 -16t192.5 -55t154.5 -119t58.5 -193q0 -170 -165 -278.5t-478 -108.5h-84v-665h188v-29h-673zM555 723h63q176 0 253 79t77 267q0 186 -70.5 276.5t-242.5 90.5q-12 0 -80 -6v-707z" />
<glyph unicode="Q" horiz-adv-x="1705" d="M86 725q0 166 70.5 313.5t182.5 244.5t247 152.5t268 55.5q193 0 366 -90t286.5 -268.5t113.5 -401.5q0 -307 -229.5 -534.5t-536.5 -227.5q-39 0 -70 6q41 -43 89.5 -59t175.5 -29q94 -8 148 -51t97 -123q45 -80 78 -101.5t133 -21.5v-28q-340 16 -449.5 59t-199.5 201 q-41 70 -121 160q-270 43 -459.5 253.5t-189.5 489.5zM420 725q0 -283 46 -442.5t137 -222t251 -62.5q98 0 172 23.5t120 76t74.5 111.5t43 153.5t18.5 176.5t4 204q0 84 -2 141.5t-8 131.5t-18.5 124t-33 105t-53 91t-76.5 67t-104.5 45t-136.5 14q-113 0 -192.5 -36.5 t-126 -97t-73 -160t-34.5 -200t-8 -243.5z" />
<glyph unicode="R" horiz-adv-x="1478" d="M72 0v29h188v1401h-188v28h309q57 0 170 3t170 3q88 0 170 -17t159.5 -55t125 -110t47.5 -168q0 -150 -120 -227.5t-284 -89.5v-11q102 -18 149.5 -28t114 -37t97 -61.5t56.5 -96t32 -147.5q23 -297 39 -344q27 -53 82 -56q12 0 25 4.5t21.5 7.5t21.5 13t16.5 13t17.5 16 l12 14l21 -18q-37 -37 -55.5 -51.5t-66.5 -30t-118 -15.5q-86 0 -147.5 25.5t-92 58.5t-49 90.5t-22.5 92t-6 94.5q-4 88 -8.5 133t-20.5 114.5t-43 103.5t-78 60.5t-125 26.5h-135v-739h188v-29h-673zM557 797h84q88 0 144.5 23.5t81 69.5t32.5 90t8 112q0 186 -55 265 t-205 79q-14 0 -28.5 -1t-33 -3t-28.5 -2v-633z" />
<glyph unicode="S" horiz-adv-x="1327" d="M129 0v455h31q39 -209 166 -334q57 -57 122.5 -86t101.5 -33t93 -4q100 0 176 34t113 86t54.5 102t17.5 95q0 72 -36 125.5t-95.5 82t-135 55t-155.5 47t-156 55.5t-135.5 80t-95 125t-35.5 184q0 168 141 295t352 127q104 0 209 -38t123 -38q27 0 37 8.5t20 34.5h33 v-389h-26q-23 63 -34 96t-37 88.5t-52.5 85t-66.5 62.5t-92 47t-116 14q-154 0 -246 -78.5t-92 -177.5q0 -76 48.5 -131t126 -87t172 -60.5t187.5 -62.5t171 -80t126 -126.5t48 -191.5q0 -205 -160 -351.5t-405 -146.5q-98 0 -242.5 39t-159.5 39q-27 0 -40 -9t-23 -38h-33z " />
<glyph unicode="T" horiz-adv-x="1443" d="M80 1083v375h1284v-375h-27q-57 201 -145 274t-248 73h-74v-1401h189v-29h-674v29h188v1401h-73q-160 0 -248 -73t-146 -274h-26z" />
<glyph unicode="U" horiz-adv-x="1593" d="M66 1430v28h675v-28h-188v-920q0 -90 5 -152.5t24.5 -136.5t53.5 -118t97.5 -74.5t151.5 -30.5q90 0 162.5 20.5t117.5 50t78 78t48.5 86t23.5 91t9 79t1 64.5v963h-186v28h409v-28h-190v-961q0 -43 -1 -70.5t-10.5 -85t-26.5 -97.5t-54 -90t-87.5 -82t-131 -53.5 t-181.5 -21.5q-154 0 -267.5 30t-178 76t-103 116.5t-50 135t-11.5 146.5v957h-190z" />
<glyph unicode="V" horiz-adv-x="1478" d="M-37 1430v28h686v-28h-196l424 -1111l432 1111h-185v28h392v-28h-177l-577 -1487h-60l-565 1487h-174z" />
<glyph unicode="W" horiz-adv-x="2123" d="M-25 1430v28h629v-28h-149l368 -1080h4l215 611l-159 469h-111v28h612v-28h-190l371 -1082h4l379 1082h-176v28h376v-28h-166l-526 -1487h-59l-336 970h-4l-344 -970h-60l-508 1487h-170z" />
<glyph unicode="X" horiz-adv-x="1554" d="M20 1430v28h687v-28h-168l299 -508l319 508h-176v28h371v-28h-160l-336 -537l528 -864h170v-29h-702v29h182l-372 616l-381 -616h184v-29h-389v29h168l399 647l-459 754h-164z" />
<glyph unicode="Y" horiz-adv-x="1441" d="M-33 1430v28h662v-28h-162l418 -715l377 715h-179v28h392v-28h-179l-395 -752v-649h191v-29h-676v29h188v571l-475 830h-162z" />
<glyph unicode="Z" horiz-adv-x="1402" d="M70 0l823 1430h-285q-156 0 -240.5 -77t-156.5 -237h-27v342h1061l-827 -1429h370q176 0 306.5 104.5t179.5 329.5h26v-463h-1230z" />
<glyph unicode="[" horiz-adv-x="530" d="M199 -573v2031h250v-41h-209v-1949h209v-41h-250z" />
<glyph unicode="\" horiz-adv-x="606" d="M6 1458l41 12l553 -1470l-41 -12z" />
<glyph unicode="]" horiz-adv-x="530" d="M82 -532h209v1949h-209v41h250v-2031h-250v41z" />
<glyph unicode="^" horiz-adv-x="1214" d="M244 625l354 833h18l353 -833h-43l-320 755l-317 -755h-45z" />
<glyph unicode="_" horiz-adv-x="1024" d="M0 -154h1024v-63h-1024v63z" />
<glyph unicode="`" horiz-adv-x="569" d="M39 1446q0 29 23.5 45t43.5 16q54 0 87 -63l180 -361h-27l-289 308q-18 20 -18 55z" />
<glyph unicode="a" horiz-adv-x="1062" d="M86 176q0 47 16.5 84t39 59.5t63.5 44t70.5 32t80.5 26.5q176 53 222.5 83t46.5 103v125q0 145 -127 146q-117 0 -117 -101q0 -6 6 -54t6 -58q0 -84 -125 -84q-118 0 -118 102q0 104 103 163.5t247 59.5q174 0 274 -63.5t100 -225.5v-507q0 -98 68 -99q43 0 78 39l18 -18 q-41 -61 -184 -62q-190 0 -217 142h-4q-31 -82 -88.5 -112t-167.5 -30q-117 0 -204 48.5t-87 156.5zM348 213q0 -195 133 -195q59 0 101.5 54.5t42.5 165.5v270h-4q-6 -25 -56 -49q-8 -4 -43 -20.5t-46 -22.5t-38.5 -22.5t-38 -31t-26 -37t-20.5 -50t-5 -62.5z" />
<glyph unicode="b" horiz-adv-x="1214" d="M63 0v29h136v1419h-136v29h386v-742h4q63 172 237 172q113 0 202 -45t140 -116.5t78 -150.5t27 -155q0 -188 -126 -328.5t-321 -140.5q-172 0 -241 181h-5v-152h-381zM449 438q0 -53 2 -93t9 -96t23.5 -95t42 -77t67.5 -57.5t97 -19.5q104 0 137 105.5t33 332.5 q0 248 -41 344.5t-145 96.5q-225 -1 -225 -441z" />
<glyph unicode="c" horiz-adv-x="985" d="M72 440q0 106 56 211t175 180.5t272.5 75.5t251 -62.5t97.5 -164.5q0 -123 -133 -123q-127 0 -127 90q0 12 15 71.5t15 72.5q0 41 -34.5 64.5t-90.5 23.5q-70 0 -115.5 -33t-68.5 -96.5t-30 -131t-7 -165.5q0 -76 3 -130.5t18.5 -120t42 -105.5t76 -68.5t116.5 -28.5 q78 0 140.5 28.5t95 71.5t50 78t21.5 60l29 -11q-10 -43 -31.5 -80.5t-61.5 -80.5t-109.5 -69t-159.5 -26q-43 0 -95.5 8.5t-128 38t-136 76.5t-103.5 137t-43 209z" />
<glyph unicode="d" horiz-adv-x="1214" d="M78 440q0 76 26.5 155t77.5 150.5t140.5 116.5t201.5 45q174 0 238 -172h4v713h-139v29h389v-1448h135v-29h-381v152h-4q-70 -180 -242 -181q-195 0 -320.5 140.5t-125.5 328.5zM354 438q0 -227 33 -332.5t137 -105.5q55 0 97.5 19.5t68 57.5t42 77t23.5 95t9 96t2 93 q0 440 -225 441q-104 0 -145.5 -96.5t-41.5 -344.5z" />
<glyph unicode="e" horiz-adv-x="1024" d="M72 442q0 180 141 322.5t336 142.5q160 0 281.5 -100t121.5 -293h-604v-92q0 -70 3 -120t18.5 -111.5t42 -99.5t77 -64.5t119.5 -26.5q76 0 137.5 29.5t94 72.5t51 78t20.5 58l29 -11q-27 -98 -115 -177t-247 -79q-219 0 -362.5 128t-143.5 343zM348 543h328v137 q0 199 -133 199q-45 0 -78 -13.5t-53.5 -45.5t-32.5 -56.5t-18.5 -74.5t-8.5 -71.5t-4 -74.5z" />
<glyph unicode="f" horiz-adv-x="720" d="M78 0v29h135v821h-135v29h135q0 78 1 119.5t8 116.5t22.5 119t45 99.5t71.5 85t109 51t151 21.5q104 0 180 -50t76 -149q0 -47 -35 -79.5t-82 -32.5q-109 0 -109 104q0 10 8.5 55t8.5 52q0 35 -26 53t-62 18q-41 0 -67 -19.5t-36 -63.5t-12 -78.5t-2 -104.5v-317h170v-29 h-170v-821h158v-29h-543z" />
<glyph unicode="g" horiz-adv-x="1099" d="M78 133q0 25 8 56.5t54 90t124 101.5q-129 96 -129 217q0 131 109.5 220t290.5 89q152 0 272 -94q57 53 97 73.5t104 20.5q118 0 118 -104q0 -43 -24.5 -66.5t-65.5 -23.5q-78 0 -90 73q-8 49 -20 56q-6 2 -15 2q-23 0 -86 -47q82 -88 82 -199q0 -115 -91 -200t-277 -85 q-133 0 -250 49q-37 -25 -55.5 -47t-21.5 -35.5t-3 -34.5q0 -100 151 -100h226q391 0 391 -325q0 -168 -134 -296t-351 -128q-121 0 -204 27.5t-120 70.5t-51.5 80t-14.5 72q0 100 81 166.5t192 95.5v4q-66 0 -128.5 17.5t-115.5 70.5t-53 133zM287 -322q0 -41 11 -80.5 t37.5 -78.5t79 -63.5t126.5 -24.5q119 0 207 79.5t88 198.5q0 109 -63.5 154t-143.5 45h-213q-68 -53 -98.5 -103.5t-30.5 -126.5zM360 629q0 -178 41 -232.5t123 -54.5q80 0 119 52t39 210q0 92 -8 144.5t-44 91.5t-106 39q-164 0 -164 -250z" />
<glyph unicode="h" horiz-adv-x="1290" d="M76 0v29h135v1419h-135v29h385v-795h4q12 29 20.5 42t38 52t62 60.5t90 41t127.5 19.5q131 0 207.5 -79t76.5 -212v-577h138v-29h-514v29h127v647q0 166 -129 166q-104 0 -176 -98.5t-72 -276.5v-438h129v-29h-514z" />
<glyph unicode="i" horiz-adv-x="645" d="M74 0v29h137v821h-137v29h387v-850h137v-29h-524zM190 1319q0 59 43 102t102.5 43t102.5 -43t43 -102t-43 -102t-102.5 -43t-102.5 43t-43 102z" />
<glyph unicode="j" horiz-adv-x="681" d="M-102 -414q0 115 114 115q109 0 109 -90q0 -16 -8.5 -53t-8.5 -52q0 -18 2.5 -29.5t17.5 -23.5t46 -12q39 0 56.5 24.5t17.5 100.5v1284h-138v29h388v-967q0 -500 -342 -500q-111 0 -182.5 47t-71.5 127zM223 1319q0 59 43 102t102.5 43t102.5 -43t43 -102t-43 -102 t-102.5 -43t-102.5 43t-43 102z" />
<glyph unicode="k" horiz-adv-x="1214" d="M72 0v29h135v1419h-135v29h385v-977h10l381 350h-150v29h322v-29h-131l-230 -217l469 -604h80v-29h-542v29h147l-346 442h-10v-442h127v-29h-512z" />
<glyph unicode="l" horiz-adv-x="645" d="M74 0v29h137v1419h-137v29h387v-1448h137v-29h-524z" />
<glyph unicode="m" horiz-adv-x="1820" d="M86 0v29h135v821h-135v29h381v-146h4q100 164 285 164q68 0 119 -13.5t82.5 -41t48 -50t36.5 -59.5q92 164 277 164q88 0 151.5 -24.5t93 -54.5t46 -81t18.5 -78.5t2 -70.5v-559h135v-29h-505v29h120v635q0 178 -137 178q-61 0 -126.5 -55.5t-65.5 -153.5v-604h120v-29 h-493v29h123v651q0 84 -36 123t-89 39q-82 0 -144 -72q-35 -41 -48 -92t-13 -150v-499h121v-29h-506z" />
<glyph unicode="n" horiz-adv-x="1290" d="M86 0v29h135v821h-135v29h381v-205h4q98 223 342 223q131 0 208 -79t77 -212v-577h137v-29h-514v29h127v647q0 166 -129 166q-104 0 -176 -98.5t-72 -276.5v-438h129v-29h-514z" />
<glyph unicode="o" d="M70 440q0 190 145 328.5t354 138.5t354.5 -138t145.5 -329q0 -193 -145.5 -331t-354.5 -138t-354 138.5t-145 330.5zM346 440.5q0 -102.5 5 -165t25.5 -134t69 -106.5t124 -35t123.5 35t68.5 106.5t26 134t5.5 165t-5.5 165t-26 133t-68.5 105.5t-123.5 35t-124 -35 t-69 -105.5t-25.5 -133t-5 -165z" />
<glyph unicode="p" horiz-adv-x="1214" d="M63 -545h136v1395h-136v29h381v-152h5q66 180 241 180q113 0 202 -45t140 -116.5t78 -150.5t27 -155q0 -188 -126 -328.5t-321 -140.5q-170 0 -237 176h-4v-692h139v-28h-525v28zM449 438q0 -53 2 -93t9 -96t23.5 -95t42 -77t67.5 -57.5t97 -19.5q104 0 137 105.5 t33 332.5q0 248 -41 344.5t-145 96.5q-225 -1 -225 -441z" />
<glyph unicode="q" horiz-adv-x="1214" d="M78 440q0 76 26.5 155t77.5 150.5t140.5 116.5t201.5 45q176 0 242 -180h4v152h381v-29h-135v-1395h135v-28h-524v28h139v692h-4q-68 -176 -238 -176q-195 0 -320.5 140.5t-125.5 328.5zM354 438q0 -227 33 -332.5t137 -105.5q55 0 97.5 19.5t68 57.5t42 77t23.5 95t9 96 t2 93q0 440 -225 441q-104 0 -145.5 -96.5t-41.5 -344.5z" />
<glyph unicode="r" horiz-adv-x="909" d="M84 0v29h133v821h-133v29h379v-172h4q90 190 264 190q86 0 139.5 -47t53.5 -127q0 -131 -125 -131t-125 92q0 8 7 53t7 49q0 49 -47 50q-51 0 -112.5 -82t-61.5 -201v-524h162v-29h-545z" />
<glyph unicode="s" horiz-adv-x="872" d="M90 0v297h29q25 -59 39 -91t43.5 -78t58.5 -69.5t74 -41t100 -17.5q182 0 182 158q0 47 -31.5 84t-129.5 73l-166 62q-186 70 -187 237q0 123 95.5 208t240.5 85q59 0 134 -25.5t83 -25.5q31 0 39 27h29v-250h-27q-27 66 -43 97.5t-48 72.5t-76 58.5t-105 17.5 q-74 0 -127 -37t-53 -105q0 -18 4 -33.5t17.5 -36t46 -41t81.5 -36.5l174 -60q225 -78 226 -264q0 -131 -104.5 -213t-246.5 -82q-57 0 -162.5 29t-123.5 29q-25 0 -37 -29h-29z" />
<glyph unicode="t" horiz-adv-x="757" d="M70 850v29h137v264q72 -29 125 -29t125 29v-264h239v-29h-239v-686q0 -72 22.5 -112t85.5 -40q121 0 170 181l31 -7q-41 -215 -272 -215q-100 0 -164 22.5t-88.5 67.5t-29.5 75t-5 83v631h-137z" />
<glyph unicode="u" horiz-adv-x="1251" d="M55 850v29h387v-650q0 -186 140 -186q92 0 151.5 82t59.5 197v528h-136v29h385v-850h136v-29h-381v166h-4q-33 -86 -120 -135t-186 -49q-147 0 -220.5 65.5t-73.5 210.5v592h-138z" />
<glyph unicode="v" horiz-adv-x="948" d="M-29 850v29h537v-29h-148l252 -567l224 567h-158v29h287v-29h-95l-362 -907h-16l-408 907h-113z" />
<glyph unicode="w" horiz-adv-x="1517" d="M-12 850v29h522v-29h-133l211 -533l162 437l-41 96h-105v29h512v-29h-137l211 -533l196 533h-143v29h277v-29h-101l-336 -907h-14l-303 768l-285 -768h-14l-356 907h-123z" />
<glyph unicode="x" horiz-adv-x="1024" d="M6 850v29h537v-29h-125l174 -287l209 287h-137v29h288v-29h-114l-226 -313l322 -508h84v-29h-522v29h141l-203 317l-227 -317h158v-29h-334v29h137l248 344l-305 477h-105z" />
<glyph unicode="y" horiz-adv-x="985" d="M-68 -422q0 55 37 84t94 29q43 0 76 -22.5t33 -63.5q0 -27 -13.5 -59.5t-13.5 -53.5q0 -45 41 -45q47 0 91.5 50t64.5 94t49 116l88 219l-385 924h-110v29h522v-29h-144l250 -592l260 592h-170v29h297v-29h-94q-174 -375 -335.5 -779.5t-196.5 -480.5q-43 -92 -96.5 -135 t-133.5 -43q-92 0 -151.5 45t-59.5 121z" />
<glyph unicode="z" horiz-adv-x="948" d="M70 0l497 850h-182q-104 0 -156.5 -48t-105.5 -167h-23l31 244h731l-495 -850h249q61 0 105.5 19.5t73 63.5t42 75.5t33.5 95.5h23l-23 -283h-800z" />
<glyph unicode="{" horiz-adv-x="757" d="M70 436v13q174 37 226 101t52 218v219q0 117 4 172t32 122t85 110q67 55 221 67v-37q-72 -4 -126 -20.5t-86 -49t-51 -62t-26.5 -80t-9.5 -80t-2 -82.5v-160q0 -180 -12 -251t-58 -116q-63 -63 -192 -78q129 -14 192 -77q45 -45 57.5 -116t12.5 -251v-160q0 -53 2 -82.5 t9.5 -80t26.5 -80t51 -62.5t86 -49t126 -21v-36q-154 12 -221 67q-57 43 -85 109.5t-32 122t-4 172.5v219q0 154 -52 218t-226 101z" />
<glyph unicode="|" horiz-adv-x="454" d="M207 -512v2048h41v-2048h-41z" />
<glyph unicode="}" horiz-adv-x="757" d="M70 -537q72 4 126 20.5t85.5 49.5t51 62.5t27 80t9.5 80t2 82.5v160q0 180 12 250.5t57 116.5q63 63 193 77q-129 14 -193 78q-45 45 -57 116t-12 251v160q0 53 -2 82.5t-9.5 80t-27 80t-51 62t-86 49t-125.5 20.5v37q154 -12 221 -67q57 -43 84.5 -110t32 -122t4.5 -172 v-219q0 -154 52 -218.5t226 -100.5v-13q-174 -37 -226 -101.5t-52 -217.5v-219q0 -117 -4.5 -172.5t-32 -122t-84.5 -109.5q-67 -55 -221 -67v36z" />
<glyph unicode="~" horiz-adv-x="1214" d="M33 332q14 51 28.5 85t46 84t84 77.5t121.5 27.5q57 0 179 -43l253 -96q123 -47 168 -47q154 -1 232 235h37q-14 -49 -28.5 -81.5t-46.5 -85t-83 -81t-119 -28.5q-57 0 -176 45l-250 96q-111 45 -178 45q-55 0 -97 -22.5t-70 -68.5t-38 -69.5t-26 -72.5h-37z" />
<glyph unicode="&#xa1;" horiz-adv-x="606" d="M158 761.5q0 59.5 43 102.5t102 43t102.5 -43t43.5 -102.5t-43.5 -102.5t-102.5 -43t-102 43t-43 102.5zM170 -465q0 8 14 127l99 813h41l98 -813q14 -119 14 -127q0 -61 -37 -100t-96 -39t-96 39t-37 100z" />
<glyph unicode="&#xa2;" horiz-adv-x="1064" d="M98 440q0 106 56.5 211t175.5 180.5t272 75.5q49 0 72 -6l49 172l29 -6l-47 -168q113 -20 179 -77.5t66 -141.5q0 -123 -133 -123q-127 0 -127 90q0 12 15.5 71.5t15.5 72.5q0 37 -31 61l-223 -791q61 -61 164 -61q78 0 140.5 28.5t95 71.5t50 78t21.5 60l29 -11 q-10 -43 -32 -80.5t-61.5 -80.5t-109.5 -69t-160 -26q-76 0 -158 23l-53 -189l-28 7l55 190q-129 41 -225.5 153.5t-96.5 284.5zM375 453q-1 -267 69 -363l220 774q-23 14 -68 15q-70 0 -116 -33t-68.5 -96.5t-29.5 -131t-7 -165.5z" />
<glyph unicode="&#xa3;" horiz-adv-x="1212" d="M78 772v29h196q-74 123 -73 254q0 188 156.5 312t351.5 124q172 0 267 -84t95 -174q0 -106 -125 -107q-119 0 -119 93q0 10 9.5 63t9.5 84q0 39 -33 67.5t-90 28.5q-246 0 -246 -391q0 -219 10 -270h316v-29h-318q29 -258 29 -391q0 -47 -14 -143q193 -31 342 -31 q145 0 186 16.5t80 79.5l27 -8q-20 -51 -35 -81t-47.5 -82t-65.5 -82t-84 -54.5t-110 -24.5q-63 0 -128 26t-100 49.5t-102 72.5q-49 -63 -92 -91t-119 -28q-66 0 -113 33t-47 102q0 137 180 137q47 0 197 -30q6 25 6 49q0 94 -36 182t-148 299h-213zM121 133 q0 -47 39 -75.5t92 -28.5q70 0 107.5 24.5t82.5 83.5q-74 66 -114.5 86.5t-90 20.5t-83 -30t-33.5 -81z" />
<glyph unicode="&#xa4;" d="M131 319l129 132q-106 121 -106 280q0 162 108 281l-131 131l27 26l131 -131q125 109 280 109q154 0 279 -109l133 131l27 -26l-131 -131q109 -123 108 -281q0 -162 -108 -280l131 -132l-27 -26l-133 131q-115 -109 -281 -109q-150 0 -278 109l-131 -131zM195 731 q0 -156 109.5 -265.5t265 -109.5t265 109.5t109.5 265.5t-109.5 265.5t-265 109.5t-265 -109.5t-109.5 -265.5z" />
<glyph unicode="&#xa5;" d="M-70 1430v28h635v-28h-162l322 -773l276 773h-178v28h385v-28h-172l-198 -570h278v-35h-289l-75 -215h364v-35h-366v-546h190v-29h-666v29h189v546h-365v35h357l-97 215h-260v35h246l-254 570h-160z" />
<glyph unicode="&#xa6;" horiz-adv-x="454" d="M207 -358v716h41v-716h-41zM207 666v716h41v-716h-41z" />
<glyph unicode="&#xa7;" d="M131 500q0 201 197 344q-57 55 -90 114.5t-33 151.5q0 145 118.5 263t323.5 118q139 0 230.5 -62.5t91.5 -168.5q0 -23 -2 -38.5t-11.5 -37t-35 -32.5t-64.5 -11q-117 0 -117 84q0 29 22.5 71.5t22.5 71.5q0 49 -45 71.5t-104 22.5q-74 0 -128 -27.5t-80 -68.5t-36 -75 t-10 -62q0 -133 176 -244l274 -172q176 -106 177 -283q0 -188 -201 -370q82 -68 125 -139.5t43 -180.5q0 -145 -124 -279t-329 -134q-106 0 -185 29.5t-118 74.5t-55.5 87t-16.5 81q0 115 129 115q43 0 77 -19.5t34 -62.5q0 -31 -23.5 -74t-23.5 -72q0 -59 55.5 -95 t132.5 -36q131 0 198 90t67 197q0 90 -45.5 148.5t-141.5 115.5l-278 168q-104 66 -150.5 139.5t-46.5 186.5zM238 649q0 -129 184 -243l246 -154l114 -76q102 84 103 189q0 121 -146 213q-330 207 -389 249q-39 -35 -56.5 -53t-36.5 -53t-19 -72z" />
<glyph unicode="&#xa8;" horiz-adv-x="569" d="M-25 1319q0 53 39 92t92.5 39t92.5 -39t39 -92t-39 -92t-92.5 -39t-92.5 39t-39 92zM332 1319q0 53 39 92t92 39t92 -39t39 -92t-39 -92t-92 -39t-92 39t-39 92z" />
<glyph unicode="&#xa9;" horiz-adv-x="1705" d="M92 731q0 313 222.5 536.5t537.5 223.5q313 0 536.5 -223.5t223.5 -536.5t-223.5 -536.5t-536.5 -223.5q-315 0 -537.5 223.5t-222.5 536.5zM133 731q0 -297 211 -508t508 -211t508 211t211 508t-211 508t-508 211t-508 -211t-211 -508zM420 739q0 197 144.5 327 t314.5 130q59 0 135 -22.5t92 -22.5q31 0 35 25h20v-248h-16q-14 51 -30.5 88t-46.5 78t-77 63.5t-110 22.5q-160 0 -210 -105.5t-50 -372.5q0 -221 59 -309t201 -88q102 0 173.5 77t94.5 183h20v-258h-20q-10 27 -39 27q-10 0 -90 -22.5t-141 -22.5q-182 0 -320.5 132 t-138.5 318z" />
<glyph unicode="&#xaa;" horiz-adv-x="636" d="M45 1053q0 51 36 87t146 66l101 29q55 14 55 76v88q0 70 -74 69q-70 0 -69 -55q0 -6 4 -31.5t4 -29.5q0 -29 -14.5 -44.5t-31 -18.5t-44.5 -3q-72 0 -72 66q0 59 59.5 99t169.5 40q80 0 131.5 -18.5t71 -51t23.5 -53t4 -49.5v-305q0 -63 37 -64q27 0 49 39l18 -18 q-14 -18 -23.5 -25.5t-35 -15.5t-64.5 -8q-61 0 -94 24.5t-41 54.5q-39 -80 -139 -79q-207 0 -207 131zM221 1077q0 -31 2 -48t8.5 -38.5t21.5 -31t42 -9.5q41 0 62.5 31t21.5 80v172q-14 -10 -66 -29q-31 -12 -45 -20t-30.5 -36t-16.5 -71z" />
<glyph unicode="&#xab;" horiz-adv-x="909" d="M96 440q0 61 29 110.5t62.5 77t92 52.5t87 32t77.5 17l7 -24q-39 -10 -59.5 -19.5t-48.5 -36t-41 -79t-13 -130.5q0 -137 38 -189t124 -75l-7 -24q-49 10 -81.5 19t-88 32.5t-90 51.5t-61.5 77t-27 108zM459 440q0 61 28.5 110.5t62.5 77t92 52.5t87 32t78 17l6 -24 q-39 -10 -59.5 -19.5t-48 -36t-41 -79t-13.5 -130.5q0 -137 38 -189t124 -75l-6 -24q-49 10 -82 19t-88 32.5t-90 51.5t-61.5 77t-26.5 108z" />
<glyph unicode="&#xac;" horiz-adv-x="1214" d="M115 649v37h983v-389h-41v352h-942z" />
<glyph unicode="&#xad;" horiz-adv-x="757" d="M186 340v201h385v-201h-385z" />
<glyph unicode="&#xae;" horiz-adv-x="1003" d="M123 1110q0 158 111.5 269.5t267.5 111.5q158 0 269.5 -112.5t111.5 -268.5t-112 -267.5t-269.5 -111.5t-268 111.5t-110.5 267.5zM143 1110q0 -147 104.5 -252.5t254 -105.5t255 105.5t105.5 252.5q0 150 -105.5 255t-255 105t-254 -105t-104.5 -255zM330 920v8h53v385 h-53v8h86q14 0 47 1t47 1q53 0 95 -22.5t42 -73.5q0 -80 -110 -88v-2q47 -8 65.5 -14.5t36.5 -28t20 -60.5q8 -100 21 -106q4 -4 12 -4t33 18l6 -4q-27 -27 -67 -27q-37 0 -57.5 18.5t-23.5 35t-5 45.5q-2 43 -5.5 61.5t-20.5 38.5t-50 20h-37v-202h51v-8h-186zM465 1139h22 q45 0 59.5 21.5t14.5 60.5q0 51 -15.5 72.5t-56.5 21.5q-4 0 -12 -1t-12 -1v-174z" />
<glyph unicode="&#xaf;" horiz-adv-x="569" d="M-45 1253v62h659v-62h-659z" />
<glyph unicode="&#xb0;" horiz-adv-x="819" d="M133 1214.5q0 114.5 81 195.5t195.5 81t195.5 -81t81 -195.5t-81 -195.5t-195.5 -81t-195.5 81t-81 195.5zM174 1214.5q0 -98.5 68.5 -167t167 -68.5t167 68.5t68.5 167t-68.5 167t-167 68.5t-167 -68.5t-68.5 -167z" />
<glyph unicode="&#xb1;" horiz-adv-x="1214" d="M115 0v37h983v-37h-983zM115 539v36h471v408h41v-408h471v-36h-471v-404h-41v404h-471z" />
<glyph unicode="&#xb2;" horiz-adv-x="681" d="M41 596v29l20 18q127 115 184.5 171t109 129t64.5 138.5t13 165.5q0 76 -9 124t-28.5 65.5t-33 21.5t-35.5 4q-45 0 -69 -17.5t-27 -31.5t-3 -37q0 -4 6.5 -32.5t6.5 -34.5q0 -29 -26 -46.5t-58 -17.5q-31 0 -55.5 15.5t-24.5 44.5q0 88 83 137t177 49q117 0 198.5 -65.5 t81.5 -178.5q0 -125 -137 -256l-268 -260h188q76 0 108 4t60.5 32t34.5 87h29v-258h-590z" />
<glyph unicode="&#xb3;" horiz-adv-x="681" d="M27 778h30q23 -74 82.5 -124t134.5 -50q53 0 89 16.5t55.5 40t31 64.5t13.5 76t2 88q0 190 -152 190q-98 0 -161 -53l-17 27q45 29 70 34l139 37q98 27 98 197q0 141 -118 141q-82 0 -82 -63q0 -6 6 -37t6 -35q0 -37 -27.5 -52t-56.5 -15q-10 0 -23.5 2t-34 19t-20.5 48 q0 49 31 85t79 50.5t86 20.5t72 6q96 0 177 -46t81 -140q0 -47 -21.5 -83t-65.5 -59.5t-76.5 -35t-87.5 -25.5v-4q111 -8 195.5 -70.5t84.5 -171.5q0 -117 -101.5 -199t-244.5 -82q-223 0 -274 203z" />
<glyph unicode="&#xb4;" horiz-adv-x="569" d="M197 1083l180 361q33 63 86 63q20 0 43.5 -16t23.5 -45q0 -35 -18 -55l-289 -308h-26z" />
<glyph unicode="&#xb6;" horiz-adv-x="1214" d="M53 1030q0 121 59.5 218.5t153.5 140.5q158 69 377 69h500v-28h-137v-1129q0 -399 -213 -557q-170 -123 -383 -123q-70 0 -117 19.5t-66.5 50t-25.5 53.5t-6 43q0 57 37.5 86t93.5 29q109 0 108 -76q0 -31 -18 -84q-12 -37 -13 -41q0 -16 19 -16q12 0 32.5 8t56.5 45 t58 96q43 111 43 467v291q-188 4 -305 49q-109 43 -181.5 149.5t-72.5 239.5zM410 -350q141 6 233 92q41 39 67.5 83t51 167t24.5 309v1129h-143v-1129q0 -170 -6 -266t-29.5 -186.5t-71 -135.5t-126.5 -63z" />
<glyph unicode="&#xb7;" horiz-adv-x="569" d="M139 577.5q0 59.5 43 102.5t102.5 43t102.5 -43t43 -102.5t-43 -102.5t-102.5 -43t-102.5 43t-43 102.5z" />
<glyph unicode="&#xb8;" horiz-adv-x="569" d="M117 -430l18 24q68 -45 119 -45q96 0 96 146q0 29 -2 46t-8 40.5t-23.5 36t-44.5 12.5q-41 0 -75 -20l-29 28l149 162h41l-143 -147l4 -5q61 29 107 29q74 0 130 -50t56 -124q0 -92 -68.5 -143.5t-162.5 -51.5q-80 0 -164 62z" />
<glyph unicode="&#xb9;" horiz-adv-x="681" d="M123 1303q201 102 287 188h57v-866h117v-29h-402v29h119v737q-102 -59 -164 -86z" />
<glyph unicode="&#xba;" horiz-adv-x="684" d="M27 1206.5q0 116.5 95 200.5t220 84t220 -84t95 -200.5t-95 -200.5t-220 -84t-220 84t-95 200.5zM209 1206.5q0 -53.5 1 -81t7 -68.5t19.5 -60.5t40 -36t65.5 -16.5t65.5 16.5t40 36t19.5 60.5t7 68.5t1 81t-1 81t-7 68.5t-19.5 60.5t-40 35.5t-65.5 16t-65.5 -16 t-40 -35.5t-19.5 -60.5t-7 -68.5t-1 -81z" />
<glyph unicode="&#xbb;" horiz-adv-x="909" d="M96 176q39 10 59.5 19.5t48 36t41 78.5t13.5 130q0 137 -38 189.5t-124 75.5l6 24q49 -10 82 -19.5t88.5 -33t90 -51t61.5 -76.5t27 -109q0 -61 -29 -110t-62.5 -77t-92 -52.5t-87.5 -31.5t-78 -17zM459 176q39 10 59.5 19.5t48 36t41 78.5t13.5 130q0 137 -38 189.5 t-124 75.5l6 24q49 -10 82 -19.5t88 -33t90 -51t61.5 -76.5t26.5 -109q0 -61 -28.5 -110t-62.5 -77t-92.5 -52.5t-87 -31.5t-77.5 -17z" />
<glyph unicode="&#xbc;" horiz-adv-x="1708" d="M123 1303q201 102 287 188h57v-866h117v-29h-402v29h119v737q-102 -59 -164 -86zM391 -10l770 1501l41 -18l-770 -1502zM870 193q129 309 234 495q66 115 114 161t101 46q80 0 80 -45q0 -12 -5 -19.5t-34 -33.5l-100 -92q-27 -25 -68 -69t-126 -163t-153 -252h322v305 h166v-305h110v-28h-110v-164h110v-29h-391v29h115v164h-365z" />
<glyph unicode="&#xbd;" horiz-adv-x="1708" d="M123 1303q201 102 287 188h57v-866h117v-29h-402v29h119v737q-102 -59 -164 -86zM391 -10l770 1501l41 -18l-770 -1502zM915 0v29l21 18q127 115 184.5 171t108.5 129t64.5 138.5t13.5 165.5q0 76 -9.5 124t-29 65.5t-31.5 21.5t-37 4q-45 0 -68.5 -17.5t-26.5 -31.5 t-3 -37q0 -6 6 -34.5t6 -32.5q0 -29 -25.5 -46.5t-58.5 -17.5q-31 0 -55.5 15.5t-24.5 44.5q0 88 83 137t177 49q117 0 199 -65.5t82 -178.5q0 -125 -137 -256l-269 -260h189q76 0 107.5 4t60 32t35.5 87h28v-258h-590z" />
<glyph unicode="&#xbe;" horiz-adv-x="1708" d="M84 778h31q23 -74 82 -124t135 -50q53 0 89 16.5t55.5 40t30.5 64.5t13 76t2 88q0 190 -151 190q-99 0 -162 -53l-16 27q45 29 69 34l139 37q98 27 99 197q0 141 -119 141q-82 0 -82 -63q0 -6 6 -37t6 -35q0 -37 -27.5 -52t-56.5 -15q-10 0 -23.5 2t-33.5 19t-20 48 q0 49 30.5 85t78.5 50.5t86 20.5t73 6q96 0 177 -46t81 -140q0 -47 -21.5 -83t-65.5 -59.5t-77 -35t-88 -25.5v-4q111 -8 196 -70.5t85 -171.5q0 -117 -101.5 -199t-245.5 -82q-223 0 -274 203zM449 -10l770 1501l41 -18l-771 -1502zM928 193q129 309 233 495 q66 115 114 161t101 46q80 0 80 -45q0 -12 -5 -19.5t-34 -33.5l-100 -92q-27 -25 -68 -69t-126 -163t-152 -252h321v305h166v-305h111v-28h-111v-164h111v-29h-391v29h114v164h-364z" />
<glyph unicode="&#xbf;" horiz-adv-x="909" d="M109 -231q0 96 38.5 172.5t96 117.5t113 62.5t98.5 21.5q113 0 163 -69h5v420h34v-482h-34q-63 96 -131 97q-76 0 -105 -89.5t-29 -279.5q0 -182 27 -248.5t100 -66.5q51 0 79 23.5t28 53.5q0 23 -21.5 55.5t-21.5 63.5q0 51 26.5 71.5t86.5 20.5q45 0 77.5 -23.5 t32.5 -72.5q0 -106 -89 -163.5t-206 -57.5q-174 0 -271 106.5t-97 266.5zM496 761.5q0 59.5 43 102.5t102 43t102 -43t43 -102.5t-43 -102.5t-102 -43t-102 43t-43 102.5z" />
<glyph unicode="&#xc0;" horiz-adv-x="1554" d="M-53 0v29h174l610 1487h55l646 -1487h176v-29h-688v29h190l-238 549h-491l-227 -549h182v-29h-389zM391 606h471l-241 559zM516 1923q0 29 23.5 45t43.5 16q54 0 87 -63l180 -361h-27l-289 308q-18 20 -18 55z" />
<glyph unicode="&#xc1;" horiz-adv-x="1554" d="M-53 0v29h174l610 1487h55l646 -1487h176v-29h-688v29h190l-238 549h-491l-227 -549h182v-29h-389zM391 606h471l-241 559zM674 1560l180 361q33 63 86 63q20 0 43.5 -16t23.5 -45q0 -35 -18 -55l-289 -308h-26z" />
<glyph unicode="&#xc2;" horiz-adv-x="1554" d="M-53 0v29h174l610 1487h55l646 -1487h176v-29h-688v29h190l-238 549h-491l-227 -549h182v-29h-389zM391 606h471l-241 559zM465 1560l223 404h149l222 -404h-25l-272 260l-273 -260h-24z" />
<glyph unicode="&#xc3;" horiz-adv-x="1554" d="M-53 0v29h174l610 1487h55l646 -1487h176v-29h-688v29h190l-238 549h-491l-227 -549h182v-29h-389zM391 606h471l-241 559zM442 1642q29 78 39 104.5t25.5 53.5t33.5 43q45 37 105 37q20 0 166.5 -41t159.5 -41q35 0 56 36t25 58h29q-10 -49 -29.5 -95t-64.5 -94 t-102 -48q-43 0 -172.5 42t-159.5 42q-40 0 -58 -41l-24 -56h-29z" />
<glyph unicode="&#xc4;" horiz-adv-x="1554" d="M-53 0v29h174l610 1487h55l646 -1487h176v-29h-688v29h190l-238 549h-491l-227 -549h182v-29h-389zM391 606h471l-241 559zM452 1755q0 53 39 92t92.5 39t92.5 -39t39 -92t-39 -92t-92.5 -39t-92.5 39t-39 92zM809 1755q0 53 39 92t92 39t92 -39t39 -92t-39 -92t-92 -39 t-92 39t-39 92z" />
<glyph unicode="&#xc5;" horiz-adv-x="1554" d="M-53 0v29h174l610 1487h55l646 -1487h176v-29h-688v29h190l-238 549h-491l-227 -549h182v-29h-389zM391 606h471l-241 559zM533 1755q0 76 57 139.5t157.5 63.5t158 -63.5t57.5 -139.5t-57.5 -139.5t-158 -63.5t-157.5 63.5t-57 139.5zM651 1755q0 -94 19.5 -137t77 -43 t77 43t19.5 137t-19.5 137t-77 43t-77 -43t-19.5 -137z" />
<glyph unicode="&#xc6;" horiz-adv-x="2009" d="M-63 0v29h122l809 1401h-190v28h1159v-350h-27q-102 322 -387 322h-219v-633h39q141 0 209 76.5t100 228.5h27v-637h-27q-33 143 -95 223t-191 80h-62v-739h195q180 0 299 115.5t162 304.5h26v-449h-1167v29h188v739h-385l-428 -739h203v-29h-360zM539 797h368v633h-4z " />
<glyph unicode="&#xc7;" horiz-adv-x="1478" d="M104 725q0 221 120 401.5t294 272.5t352 92q96 0 225.5 -38t153.5 -38q29 0 43.5 8.5t20.5 34.5h33v-418h-27q-29 88 -55.5 146.5t-77.5 130.5t-130 108.5t-184 36.5q-63 0 -117.5 -12t-95.5 -33.5t-73.5 -52.5t-55 -69t-40 -82t-25.5 -91t-15.5 -98t-8.5 -103.5 t-3 -104.5t0 -103v-49q0 -369 100.5 -517.5t333.5 -148.5q172 0 292 128t161 308h33v-434h-33q-18 43 -68 43q-18 0 -152 -37t-235 -37h-47l-116 -116l4 -5q61 29 106 29q74 0 130.5 -50t56.5 -124q0 -92 -69 -143.5t-163 -51.5q-80 0 -164 62l19 24q68 -45 118 -45 q96 0 97 146q0 29 -2 46t-8.5 40.5t-23.5 36t-44 12.5q-41 0 -76 -20l-29 28l127 137q-281 31 -481.5 246t-200.5 504z" />
<glyph unicode="&#xc8;" horiz-adv-x="1478" d="M76 0v29h188v1401h-188v28h1224v-350h-26q-102 322 -387 322h-326v-633h115q141 0 208.5 76.5t100.5 228.5h27v-637h-27q-33 143 -95.5 223t-191.5 80h-137v-739h336q180 0 299 115.5t162 304.5h26v-449h-1308zM510 1923q0 29 23.5 45t43.5 16q54 0 87 -63l180 -361h-27 l-289 308q-18 20 -18 55z" />
<glyph unicode="&#xc9;" horiz-adv-x="1478" d="M76 0v29h188v1401h-188v28h1224v-350h-26q-102 322 -387 322h-326v-633h115q141 0 208.5 76.5t100.5 228.5h27v-637h-27q-33 143 -95.5 223t-191.5 80h-137v-739h336q180 0 299 115.5t162 304.5h26v-449h-1308zM668 1560l180 361q33 63 86 63q20 0 43.5 -16t23.5 -45 q0 -35 -18 -55l-289 -308h-26z" />
<glyph unicode="&#xca;" horiz-adv-x="1478" d="M76 0v29h188v1401h-188v28h1224v-350h-26q-102 322 -387 322h-326v-633h115q141 0 208.5 76.5t100.5 228.5h27v-637h-27q-33 143 -95.5 223t-191.5 80h-137v-739h336q180 0 299 115.5t162 304.5h26v-449h-1308zM459 1560l223 404h149l222 -404h-25l-272 260l-273 -260 h-24z" />
<glyph unicode="&#xcb;" horiz-adv-x="1478" d="M76 0v29h188v1401h-188v28h1224v-350h-26q-102 322 -387 322h-326v-633h115q141 0 208.5 76.5t100.5 228.5h27v-637h-27q-33 143 -95.5 223t-191.5 80h-137v-739h336q180 0 299 115.5t162 304.5h26v-449h-1308zM446 1755q0 53 39 92t92.5 39t92.5 -39t39 -92t-39 -92 t-92.5 -39t-92.5 39t-39 92zM803 1755q0 53 39 92t92 39t92 -39t39 -92t-39 -92t-92 -39t-92 39t-39 92z" />
<glyph unicode="&#xcc;" horiz-adv-x="833" d="M80 0v29h188v1401h-188v28h674v-28h-189v-1401h189v-29h-674zM172 1923q0 29 23.5 45t43.5 16q54 0 87 -63l180 -361h-27l-289 308q-18 20 -18 55z" />
<glyph unicode="&#xcd;" horiz-adv-x="833" d="M80 0v29h188v1401h-188v28h674v-28h-189v-1401h189v-29h-674zM330 1560l180 361q33 63 86 63q20 0 43.5 -16t23.5 -45q0 -35 -18 -55l-289 -308h-26z" />
<glyph unicode="&#xce;" horiz-adv-x="833" d="M80 0v29h188v1401h-188v28h674v-28h-189v-1401h189v-29h-674zM121 1560l223 404h149l222 -404h-25l-272 260l-273 -260h-24z" />
<glyph unicode="&#xcf;" horiz-adv-x="833" d="M80 0v29h188v1401h-188v28h674v-28h-189v-1401h189v-29h-674zM108 1755q0 53 39 92t92.5 39t92.5 -39t39 -92t-39 -92t-92.5 -39t-92.5 39t-39 92zM465 1755q0 53 39 92t92 39t92 -39t39 -92t-39 -92t-92 -39t-92 39t-39 92z" />
<glyph unicode="&#xd0;" horiz-adv-x="1669" d="M66 0v29h188v733h-188v35h188v633h-188v28h188q70 0 209 3t209 3q121 0 235.5 -17t238.5 -68.5t215 -130.5t150.5 -213t59.5 -306t-59.5 -306t-148.5 -212t-208 -129t-225.5 -69.5t-210.5 -18.5q-78 0 -232.5 3t-232.5 3h-188zM551 29q59 -6 108 -6q152 0 263.5 47 t170 114.5t93.5 168t43 179t8 177.5q0 143 -12.5 246.5t-48 198.5t-96 153.5t-162 93.5t-240.5 35q-88 0 -127 -6v-633h303v-35h-303v-733z" />
<glyph unicode="&#xd1;" horiz-adv-x="1517" d="M70 0v29h188v1401h-188v28h483l682 -975h4v947h-188v28h409v-28h-188v-1430h-55l-922 1313h-4v-1284h188v-29h-409zM440 1642q29 78 39 104.5t25.5 53.5t33.5 43q45 37 105 37q20 0 166.5 -41t159.5 -41q35 0 56 36t25 58h29q-10 -49 -29.5 -95t-64.5 -94t-102 -48 q-43 0 -172.5 42t-159.5 42q-40 0 -58 -41l-24 -56h-29z" />
<glyph unicode="&#xd2;" horiz-adv-x="1705" d="M86 725q0 166 70.5 313.5t182.5 244.5t247 152.5t268 55.5q193 0 366 -90t286.5 -268.5t113.5 -401.5q0 -307 -229.5 -534.5t-536.5 -227.5t-537.5 222.5t-230.5 533.5zM420 725q0 -283 46 -442.5t137 -222t251 -62.5q98 0 172 23.5t120 76t74.5 111.5t43 153.5 t18.5 176.5t4 204q0 84 -2 141.5t-8 131.5t-18.5 124t-33 105t-53 91t-76.5 67t-104.5 45t-136.5 14q-113 0 -192.5 -36.5t-126 -97t-73 -160t-34.5 -200t-8 -243.5zM608 1923q0 29 23.5 45t43.5 16q54 0 87 -63l180 -361h-27l-289 308q-18 20 -18 55z" />
<glyph unicode="&#xd3;" horiz-adv-x="1705" d="M86 725q0 166 70.5 313.5t182.5 244.5t247 152.5t268 55.5q193 0 366 -90t286.5 -268.5t113.5 -401.5q0 -307 -229.5 -534.5t-536.5 -227.5t-537.5 222.5t-230.5 533.5zM420 725q0 -283 46 -442.5t137 -222t251 -62.5q98 0 172 23.5t120 76t74.5 111.5t43 153.5 t18.5 176.5t4 204q0 84 -2 141.5t-8 131.5t-18.5 124t-33 105t-53 91t-76.5 67t-104.5 45t-136.5 14q-113 0 -192.5 -36.5t-126 -97t-73 -160t-34.5 -200t-8 -243.5zM766 1560l180 361q33 63 86 63q20 0 43.5 -16t23.5 -45q0 -35 -18 -55l-289 -308h-26z" />
<glyph unicode="&#xd4;" horiz-adv-x="1705" d="M86 725q0 166 70.5 313.5t182.5 244.5t247 152.5t268 55.5q193 0 366 -90t286.5 -268.5t113.5 -401.5q0 -307 -229.5 -534.5t-536.5 -227.5t-537.5 222.5t-230.5 533.5zM420 725q0 -283 46 -442.5t137 -222t251 -62.5q98 0 172 23.5t120 76t74.5 111.5t43 153.5 t18.5 176.5t4 204q0 84 -2 141.5t-8 131.5t-18.5 124t-33 105t-53 91t-76.5 67t-104.5 45t-136.5 14q-113 0 -192.5 -36.5t-126 -97t-73 -160t-34.5 -200t-8 -243.5zM557 1560l223 404h149l222 -404h-25l-272 260l-273 -260h-24z" />
<glyph unicode="&#xd5;" horiz-adv-x="1705" d="M86 725q0 166 70.5 313.5t182.5 244.5t247 152.5t268 55.5q193 0 366 -90t286.5 -268.5t113.5 -401.5q0 -307 -229.5 -534.5t-536.5 -227.5t-537.5 222.5t-230.5 533.5zM420 725q0 -283 46 -442.5t137 -222t251 -62.5q98 0 172 23.5t120 76t74.5 111.5t43 153.5 t18.5 176.5t4 204q0 84 -2 141.5t-8 131.5t-18.5 124t-33 105t-53 91t-76.5 67t-104.5 45t-136.5 14q-113 0 -192.5 -36.5t-126 -97t-73 -160t-34.5 -200t-8 -243.5zM534 1642q29 78 39 104.5t25.5 53.5t33.5 43q45 37 105 37q20 0 166.5 -41t159.5 -41q35 0 56 36t25 58h29 q-10 -49 -29.5 -95t-64.5 -94t-102 -48q-43 0 -172.5 42t-159.5 42q-40 0 -58 -41l-24 -56h-29z" />
<glyph unicode="&#xd6;" horiz-adv-x="1705" d="M86 725q0 166 70.5 313.5t182.5 244.5t247 152.5t268 55.5q193 0 366 -90t286.5 -268.5t113.5 -401.5q0 -307 -229.5 -534.5t-536.5 -227.5t-537.5 222.5t-230.5 533.5zM420 725q0 -283 46 -442.5t137 -222t251 -62.5q98 0 172 23.5t120 76t74.5 111.5t43 153.5 t18.5 176.5t4 204q0 84 -2 141.5t-8 131.5t-18.5 124t-33 105t-53 91t-76.5 67t-104.5 45t-136.5 14q-113 0 -192.5 -36.5t-126 -97t-73 -160t-34.5 -200t-8 -243.5zM544 1755q0 53 39 92t92.5 39t92.5 -39t39 -92t-39 -92t-92.5 -39t-92.5 39t-39 92zM901 1755q0 53 39 92 t92 39t92 -39t39 -92t-39 -92t-92 -39t-92 39t-39 92z" />
<glyph unicode="&#xd7;" horiz-adv-x="1214" d="M154 68l424 424l-424 423l26 29l426 -426l426 426l27 -29l-424 -423l424 -424l-27 -29l-426 426l-426 -426z" />
<glyph unicode="&#xd8;" horiz-adv-x="1705" d="M86 725q0 166 70.5 313.5t182.5 244.5t247 152.5t268 55.5q166 0 328 -76l100 199l29 -15l-101 -196q182 -94 296 -269.5t114 -402.5q0 -307 -229.5 -534.5t-536.5 -227.5q-180 0 -340 82l-104 -205l-29 15l106 207q-180 96 -290.5 272t-110.5 385zM420 725 q0 -422 106 -582l625 1215q-100 104 -297 104q-113 0 -192.5 -36.5t-126 -97t-73 -160t-34.5 -200t-8 -243.5zM547 115q94 -117 307 -117q98 0 172 23.5t120 76t74.5 111.5t43 153.5t18.5 176.5t4 204q0 221 -20 361.5t-92 228.5z" />
<glyph unicode="&#xd9;" horiz-adv-x="1593" d="M66 1430v28h675v-28h-188v-920q0 -90 5 -152.5t24.5 -136.5t53.5 -118t97.5 -74.5t151.5 -30.5q90 0 162.5 20.5t117.5 50t78 78t48.5 86t23.5 91t9 79t1 64.5v963h-186v28h409v-28h-190v-961q0 -43 -1 -70.5t-10.5 -85t-26.5 -97.5t-54 -90t-87.5 -82t-131 -53.5 t-181.5 -21.5q-154 0 -267.5 30t-178 76t-103 116.5t-50 135t-11.5 146.5v957h-190zM612 1923q0 29 23.5 45t43.5 16q54 0 87 -63l180 -361h-27l-289 308q-18 20 -18 55z" />
<glyph unicode="&#xda;" horiz-adv-x="1593" d="M66 1430v28h675v-28h-188v-920q0 -90 5 -152.5t24.5 -136.5t53.5 -118t97.5 -74.5t151.5 -30.5q90 0 162.5 20.5t117.5 50t78 78t48.5 86t23.5 91t9 79t1 64.5v963h-186v28h409v-28h-190v-961q0 -43 -1 -70.5t-10.5 -85t-26.5 -97.5t-54 -90t-87.5 -82t-131 -53.5 t-181.5 -21.5q-154 0 -267.5 30t-178 76t-103 116.5t-50 135t-11.5 146.5v957h-190zM770 1560l180 361q33 63 86 63q20 0 43.5 -16t23.5 -45q0 -35 -18 -55l-289 -308h-26z" />
<glyph unicode="&#xdb;" horiz-adv-x="1593" d="M66 1430v28h675v-28h-188v-920q0 -90 5 -152.5t24.5 -136.5t53.5 -118t97.5 -74.5t151.5 -30.5q90 0 162.5 20.5t117.5 50t78 78t48.5 86t23.5 91t9 79t1 64.5v963h-186v28h409v-28h-190v-961q0 -43 -1 -70.5t-10.5 -85t-26.5 -97.5t-54 -90t-87.5 -82t-131 -53.5 t-181.5 -21.5q-154 0 -267.5 30t-178 76t-103 116.5t-50 135t-11.5 146.5v957h-190zM561 1560l223 404h149l222 -404h-25l-272 260l-273 -260h-24z" />
<glyph unicode="&#xdc;" horiz-adv-x="1593" d="M66 1430v28h675v-28h-188v-920q0 -90 5 -152.5t24.5 -136.5t53.5 -118t97.5 -74.5t151.5 -30.5q90 0 162.5 20.5t117.5 50t78 78t48.5 86t23.5 91t9 79t1 64.5v963h-186v28h409v-28h-190v-961q0 -43 -1 -70.5t-10.5 -85t-26.5 -97.5t-54 -90t-87.5 -82t-131 -53.5 t-181.5 -21.5q-154 0 -267.5 30t-178 76t-103 116.5t-50 135t-11.5 146.5v957h-190zM548 1755q0 53 39 92t92.5 39t92.5 -39t39 -92t-39 -92t-92.5 -39t-92.5 39t-39 92zM905 1755q0 53 39 92t92 39t92 -39t39 -92t-39 -92t-92 -39t-92 39t-39 92z" />
<glyph unicode="&#xdd;" horiz-adv-x="1441" d="M-33 1430v28h662v-28h-162l418 -715l377 715h-179v28h392v-28h-179l-395 -752v-649h191v-29h-676v29h188v571l-475 830h-162zM695 1560l180 361q33 63 86 63q20 0 43.5 -16t23.5 -45q0 -35 -18 -55l-289 -308h-26z" />
<glyph unicode="&#xde;" horiz-adv-x="1327" d="M70 0v29h188v1401h-188v28h673v-28h-188v-209h121q104 0 200.5 -16.5t192.5 -55.5t154.5 -119t58.5 -192q0 -170 -165 -278.5t-478 -108.5h-84v-422h188v-29h-673zM555 479h63q176 0 253 79t77 267q0 186 -70.5 276.5t-242.5 90.5q-12 0 -80 -6v-707z" />
<glyph unicode="&#xdf;" horiz-adv-x="1327" d="M70 0v29h137v1009q0 104 24.5 178t92.5 144q133 131 352 131q96 0 162.5 -26.5t97.5 -68.5t42 -78t11 -73q0 -84 -38 -153.5t-74.5 -121.5t-36.5 -93q0 -55 41 -107.5t100 -97.5t117.5 -94.5t99.5 -118t41 -146.5q0 -143 -117.5 -242.5t-283.5 -99.5q-109 0 -195 44 t-86 143q0 51 37 80.5t90 29.5q39 0 71.5 -20.5t32.5 -57.5q0 -16 -11 -64t-11 -63q0 -63 86 -63q111 0 157 59.5t46 122.5q0 66 -42 128.5t-102.5 112.5t-121 98t-102.5 106.5t-42 117.5q0 51 31 98.5t76 86.5t90 80t75.5 98t30.5 123q0 111 -64.5 165t-144.5 54 q-162 0 -222 -94t-60 -246v-1110h-387z" />
<glyph unicode="&#xe0;" horiz-adv-x="1062" d="M86 176q0 47 16.5 84t39 59.5t63.5 44t70.5 32t80.5 26.5q176 53 222.5 83t46.5 103v125q0 145 -127 146q-117 0 -117 -101q0 -6 6 -54t6 -58q0 -84 -125 -84q-119 0 -118 104q0 102 103 161.5t247 59.5q174 0 274 -63.5t100 -225.5v-507q0 -98 68 -99q43 0 78 39l18 -18 q-41 -61 -184 -62q-190 0 -217 142h-4q-31 -82 -88.5 -112t-167.5 -30q-117 0 -204 48.5t-87 156.5zM287 1446q0 29 23.5 45t43.5 16q54 0 87 -63l180 -361h-27l-289 308q-18 20 -18 55zM348 213q0 -195 133 -195q59 0 101.5 54.5t42.5 165.5v270h-4q-6 -25 -56 -49 q-8 -4 -43 -20.5t-46 -22.5t-38.5 -22.5t-38 -31t-26 -37t-20.5 -50t-5 -62.5z" />
<glyph unicode="&#xe1;" horiz-adv-x="1062" d="M86 176q0 47 16.5 84t39 59.5t63.5 44t70.5 32t80.5 26.5q176 53 222.5 83t46.5 103v125q0 145 -127 146q-117 0 -117 -101q0 -6 6 -54t6 -58q0 -84 -125 -84q-119 0 -118 104q0 102 103 161.5t247 59.5q174 0 274 -63.5t100 -225.5v-507q0 -98 68 -99q43 0 78 39l18 -18 q-41 -61 -184 -62q-190 0 -217 142h-4q-31 -82 -88.5 -112t-167.5 -30q-117 0 -204 48.5t-87 156.5zM348 213q0 -195 133 -195q59 0 101.5 54.5t42.5 165.5v270h-4q-6 -25 -56 -49q-8 -4 -43 -20.5t-46 -22.5t-38.5 -22.5t-38 -31t-26 -37t-20.5 -50t-5 -62.5zM445 1083 l180 361q33 63 86 63q20 0 43.5 -16t23.5 -45q0 -35 -18 -55l-289 -308h-26z" />
<glyph unicode="&#xe2;" horiz-adv-x="1062" d="M86 176q0 47 16.5 84t39 59.5t63.5 44t70.5 32t80.5 26.5q176 53 222.5 83t46.5 103v125q0 145 -127 146q-117 0 -117 -101q0 -6 6 -54t6 -58q0 -84 -125 -84q-119 0 -118 104q0 102 103 161.5t247 59.5q174 0 274 -63.5t100 -225.5v-507q0 -98 68 -99q43 0 78 39l18 -18 q-41 -61 -184 -62q-190 0 -217 142h-4q-31 -82 -88.5 -112t-167.5 -30q-117 0 -204 48.5t-87 156.5zM236 1083l223 404h149l222 -404h-25l-272 260l-273 -260h-24zM348 213q0 -195 133 -195q59 0 101.5 54.5t42.5 165.5v270h-4q-6 -25 -56 -49q-8 -4 -43 -20.5t-46 -22.5 t-38.5 -22.5t-38 -31t-26 -37t-20.5 -50t-5 -62.5z" />
<glyph unicode="&#xe3;" horiz-adv-x="1062" d="M86 176q0 47 16.5 84t39 59.5t63.5 44t70.5 32t80.5 26.5q176 53 222.5 83t46.5 103v125q0 145 -127 146q-117 0 -117 -101q0 -6 6 -54t6 -58q0 -84 -125 -84q-119 0 -118 104q0 102 103 161.5t247 59.5q174 0 274 -63.5t100 -225.5v-507q0 -98 68 -99q43 0 78 39l18 -18 q-41 -61 -184 -62q-190 0 -217 142h-4q-31 -82 -88.5 -112t-167.5 -30q-117 0 -204 48.5t-87 156.5zM213 1165q29 78 39 104.5t25.5 53.5t33.5 43q45 37 105 37q20 0 166.5 -41t159.5 -41q35 0 56 36t25 58h29q-10 -49 -29.5 -95t-64.5 -94t-102 -48q-43 0 -172.5 42 t-159.5 42q-40 0 -58 -41l-24 -56h-29zM348 213q0 -195 133 -195q59 0 101.5 54.5t42.5 165.5v270h-4q-6 -25 -56 -49q-8 -4 -43 -20.5t-46 -22.5t-38.5 -22.5t-38 -31t-26 -37t-20.5 -50t-5 -62.5z" />
<glyph unicode="&#xe4;" horiz-adv-x="1062" d="M86 176q0 47 16.5 84t39 59.5t63.5 44t70.5 32t80.5 26.5q176 53 222.5 83t46.5 103v125q0 145 -127 146q-117 0 -117 -101q0 -6 6 -54t6 -58q0 -84 -125 -84q-119 0 -118 104q0 102 103 161.5t247 59.5q174 0 274 -63.5t100 -225.5v-507q0 -98 68 -99q43 0 78 39l18 -18 q-41 -61 -184 -62q-190 0 -217 142h-4q-31 -82 -88.5 -112t-167.5 -30q-117 0 -204 48.5t-87 156.5zM223 1319q0 53 39 92t92.5 39t92.5 -39t39 -92t-39 -92t-92.5 -39t-92.5 39t-39 92zM348 213q0 -195 133 -195q59 0 101.5 54.5t42.5 165.5v270h-4q-6 -25 -56 -49 q-8 -4 -43 -20.5t-46 -22.5t-38.5 -22.5t-38 -31t-26 -37t-20.5 -50t-5 -62.5zM580 1319q0 53 39 92t92 39t92 -39t39 -92t-39 -92t-92 -39t-92 39t-39 92z" />
<glyph unicode="&#xe5;" horiz-adv-x="1062" d="M86 176q0 47 16.5 84t39 59.5t63.5 44t70.5 32t80.5 26.5q176 53 222.5 83t46.5 103v125q0 145 -127 146q-117 0 -117 -101q0 -6 6 -54t6 -58q0 -84 -125 -84q-119 0 -118 104q0 102 103 161.5t247 59.5q174 0 274 -63.5t100 -225.5v-507q0 -98 68 -99q43 0 78 39l18 -18 q-41 -61 -184 -62q-190 0 -217 142h-4q-31 -82 -88.5 -112t-167.5 -30q-117 0 -204 48.5t-87 156.5zM318 1288q0 76 57 139.5t157.5 63.5t158 -63.5t57.5 -139.5t-57.5 -139.5t-158 -63.5t-157.5 63.5t-57 139.5zM348 213q0 -195 133 -195q59 0 101.5 54.5t42.5 165.5v270 h-4q-6 -25 -56 -49q-8 -4 -43 -20.5t-46 -22.5t-38.5 -22.5t-38 -31t-26 -37t-20.5 -50t-5 -62.5zM436 1288q0 -94 19.5 -137t77 -43t77 43t19.5 137t-19.5 137t-77 43t-77 -43t-19.5 -137z" />
<glyph unicode="&#xe6;" horiz-adv-x="1517" d="M63 176q0 47 16.5 84t39 59.5t63.5 44t71 32t81 26.5q184 53 232 83t48 103v150q0 121 -127 121q-117 0 -116 -101q0 -6 6 -54t6 -58q0 -84 -125 -84q-119 0 -119 104q0 102 103.5 161.5t246.5 59.5q193 0 308 -90q111 90 243 90q154 0 275 -100t121 -293h-572v-92 q0 -88 6.5 -150.5t28 -131t69.5 -104.5t123.5 -36t137 29.5t94.5 72.5t51.5 78t20.5 58l28 -11q-27 -98 -114.5 -177t-247.5 -79q-322 0 -418 230h-4q-16 -229 -285 -230q-117 0 -204 48t-87 157zM326 213q0 -195 133 -195q61 0 108 54.5t47 165.5v270h-4q-2 -6 -7 -11 t-11 -9.5t-15.5 -9.5t-13.5 -7q-29 -18 -83 -47t-80.5 -47.5t-50 -60.5t-23.5 -103zM864 543h295v137q0 199 -133 199q-37 0 -64.5 -13.5t-44 -45.5t-26.5 -55.5t-15.5 -74.5t-7.5 -71.5t-4 -75.5z" />
<glyph unicode="&#xe7;" horiz-adv-x="985" d="M72 440q0 168 136 317.5t367 149.5q154 0 251.5 -62.5t97.5 -164.5q0 -123 -133 -123q-127 0 -127 90q0 12 15 71.5t15 72.5q0 41 -34.5 64.5t-90.5 23.5q-70 0 -115.5 -33t-68.5 -96.5t-30 -131t-7 -165.5q0 -76 3 -130.5t18.5 -120t42 -105.5t76 -68.5t116.5 -28.5 q78 0 140.5 28.5t95 71.5t50 78t21.5 60l29 -11q-10 -43 -31.5 -80.5t-61.5 -80.5t-109.5 -69t-159.5 -26h-23l-119 -118l4 -5q61 29 107 29q74 0 130 -50t56 -124q0 -92 -68.5 -143.5t-162.5 -51.5q-80 0 -164 62l18 24q68 -45 119 -45q96 0 96 146q0 29 -2 46t-8 40.5 t-23.5 36t-43.5 12.5q-41 0 -76 -20l-29 28l129 139q-51 4 -103.5 17.5t-117 47.5t-112.5 82t-80.5 131t-32.5 185z" />
<glyph unicode="&#xe8;" horiz-adv-x="1024" d="M72 442q0 180 141 322.5t336 142.5q160 0 281.5 -100t121.5 -293h-604v-92q0 -70 3 -120t18.5 -111.5t42 -99.5t77 -64.5t119.5 -26.5q76 0 137.5 29.5t94 72.5t51 78t20.5 58l29 -11q-27 -98 -115 -177t-247 -79q-219 0 -362.5 128t-143.5 343zM266 1446q0 29 23.5 45 t43.5 16q54 0 87 -63l180 -361h-27l-289 308q-18 20 -18 55zM348 543h328v137q0 199 -133 199q-45 0 -78 -13.5t-53.5 -45.5t-32.5 -56.5t-18.5 -74.5t-8.5 -71.5t-4 -74.5z" />
<glyph unicode="&#xe9;" horiz-adv-x="1024" d="M72 442q0 180 141 322.5t336 142.5q160 0 281.5 -100t121.5 -293h-604v-92q0 -70 3 -120t18.5 -111.5t42 -99.5t77 -64.5t119.5 -26.5q76 0 137.5 29.5t94 72.5t51 78t20.5 58l29 -11q-27 -98 -115 -177t-247 -79q-219 0 -362.5 128t-143.5 343zM348 543h328v137 q0 199 -133 199q-45 0 -78 -13.5t-53.5 -45.5t-32.5 -56.5t-18.5 -74.5t-8.5 -71.5t-4 -74.5zM424 1083l180 361q33 63 86 63q20 0 43.5 -16t23.5 -45q0 -35 -18 -55l-289 -308h-26z" />
<glyph unicode="&#xea;" horiz-adv-x="1024" d="M72 442q0 180 141 322.5t336 142.5q160 0 281.5 -100t121.5 -293h-604v-92q0 -70 3 -120t18.5 -111.5t42 -99.5t77 -64.5t119.5 -26.5q76 0 137.5 29.5t94 72.5t51 78t20.5 58l29 -11q-27 -98 -115 -177t-247 -79q-219 0 -362.5 128t-143.5 343zM215 1083l223 404h149 l222 -404h-25l-272 260l-273 -260h-24zM348 543h328v137q0 199 -133 199q-45 0 -78 -13.5t-53.5 -45.5t-32.5 -56.5t-18.5 -74.5t-8.5 -71.5t-4 -74.5z" />
<glyph unicode="&#xeb;" horiz-adv-x="1024" d="M72 442q0 180 141 322.5t336 142.5q160 0 281.5 -100t121.5 -293h-604v-92q0 -70 3 -120t18.5 -111.5t42 -99.5t77 -64.5t119.5 -26.5q76 0 137.5 29.5t94 72.5t51 78t20.5 58l29 -11q-27 -98 -115 -177t-247 -79q-219 0 -362.5 128t-143.5 343zM202 1319q0 53 39 92 t92.5 39t92.5 -39t39 -92t-39 -92t-92.5 -39t-92.5 39t-39 92zM348 543h328v137q0 199 -133 199q-45 0 -78 -13.5t-53.5 -45.5t-32.5 -56.5t-18.5 -74.5t-8.5 -71.5t-4 -74.5zM559 1319q0 53 39 92t92 39t92 -39t39 -92t-39 -92t-92 -39t-92 39t-39 92z" />
<glyph unicode="&#xec;" horiz-adv-x="645" d="M74 0v29h137v821h-137v29h387v-850h137v-29h-524zM78 1446q0 29 23.5 45t43.5 16q54 0 87 -63l180 -361h-27l-289 308q-18 20 -18 55z" />
<glyph unicode="&#xed;" horiz-adv-x="645" d="M74 0v29h137v821h-137v29h387v-850h137v-29h-524zM236 1083l180 361q33 63 86 63q20 0 43.5 -16t23.5 -45q0 -35 -18 -55l-289 -308h-26z" />
<glyph unicode="&#xee;" horiz-adv-x="645" d="M27 1083l223 404h149l222 -404h-25l-272 260l-273 -260h-24zM74 0v29h137v821h-137v29h387v-850h137v-29h-524z" />
<glyph unicode="&#xef;" horiz-adv-x="645" d="M14 1319q0 53 39 92t92.5 39t92.5 -39t39 -92t-39 -92t-92.5 -39t-92.5 39t-39 92zM74 0v29h137v821h-137v29h387v-850h137v-29h-524zM371 1319q0 53 39 92t92 39t92 -39t39 -92t-39 -92t-92 -39t-92 39t-39 92z" />
<glyph unicode="&#xf0;" d="M70 440q0 190 145 328.5t354 138.5q80 0 170 -55q-61 213 -215 383l-235 -156l-17 23l234 153q-88 90 -252 175l16 28q180 -74 308 -155l237 155l16 -22l-229 -152q467 -322 467 -782q0 -139 -44 -242.5t-102.5 -157t-135 -85t-126 -39t-92.5 -7.5q-209 0 -354 138.5 t-145 330.5zM346 440.5q0 -102.5 5 -165t25.5 -134t69 -106.5t124 -35t123.5 35t68.5 106.5t26 134t5.5 165t-5.5 165t-26 133t-68.5 105.5t-123.5 35t-124 -35t-69 -105.5t-25.5 -133t-5 -165z" />
<glyph unicode="&#xf1;" horiz-adv-x="1290" d="M86 0v29h135v821h-135v29h381v-205h4q98 223 342 223q131 0 208 -79t77 -212v-577h137v-29h-514v29h127v647q0 166 -129 166q-104 0 -176 -98.5t-72 -276.5v-438h129v-29h-514zM325 1165q29 78 39 104.5t25.5 53.5t33.5 43q45 37 105 37q20 0 166.5 -41t159.5 -41 q35 0 56 36t25 58h29q-10 -49 -29.5 -95t-64.5 -94t-102 -48q-43 0 -172.5 42t-159.5 42q-40 0 -58 -41l-24 -56h-29z" />
<glyph unicode="&#xf2;" d="M70 440q0 190 145 328.5t354 138.5t354.5 -138t145.5 -329q0 -193 -145.5 -331t-354.5 -138t-354 138.5t-145 330.5zM324 1446q0 29 23.5 45t43.5 16q54 0 87 -63l180 -361h-27l-289 308q-18 20 -18 55zM346 440.5q0 -102.5 5 -165t25.5 -134t69 -106.5t124 -35t123.5 35 t68.5 106.5t26 134t5.5 165t-5.5 165t-26 133t-68.5 105.5t-123.5 35t-124 -35t-69 -105.5t-25.5 -133t-5 -165z" />
<glyph unicode="&#xf3;" d="M70 440q0 190 145 328.5t354 138.5t354.5 -138t145.5 -329q0 -193 -145.5 -331t-354.5 -138t-354 138.5t-145 330.5zM346 440.5q0 -102.5 5 -165t25.5 -134t69 -106.5t124 -35t123.5 35t68.5 106.5t26 134t5.5 165t-5.5 165t-26 133t-68.5 105.5t-123.5 35t-124 -35 t-69 -105.5t-25.5 -133t-5 -165zM482 1083l180 361q33 63 86 63q20 0 43.5 -16t23.5 -45q0 -35 -18 -55l-289 -308h-26z" />
<glyph unicode="&#xf4;" d="M70 440q0 190 145 328.5t354 138.5t354.5 -138t145.5 -329q0 -193 -145.5 -331t-354.5 -138t-354 138.5t-145 330.5zM273 1083l223 404h149l222 -404h-25l-272 260l-273 -260h-24zM346 440.5q0 -102.5 5 -165t25.5 -134t69 -106.5t124 -35t123.5 35t68.5 106.5t26 134 t5.5 165t-5.5 165t-26 133t-68.5 105.5t-123.5 35t-124 -35t-69 -105.5t-25.5 -133t-5 -165z" />
<glyph unicode="&#xf5;" d="M70 440q0 190 145 328.5t354 138.5t354.5 -138t145.5 -329q0 -193 -145.5 -331t-354.5 -138t-354 138.5t-145 330.5zM250 1165q29 78 39 104.5t25.5 53.5t33.5 43q45 37 105 37q20 0 166.5 -41t159.5 -41q35 0 56 36t25 58h29q-10 -49 -29.5 -95t-64.5 -94t-102 -48 q-43 0 -172.5 42t-159.5 42q-40 0 -58 -41l-24 -56h-29zM346 440.5q0 -102.5 5 -165t25.5 -134t69 -106.5t124 -35t123.5 35t68.5 106.5t26 134t5.5 165t-5.5 165t-26 133t-68.5 105.5t-123.5 35t-124 -35t-69 -105.5t-25.5 -133t-5 -165z" />
<glyph unicode="&#xf6;" d="M70 440q0 190 145 328.5t354 138.5t354.5 -138t145.5 -329q0 -193 -145.5 -331t-354.5 -138t-354 138.5t-145 330.5zM260 1319q0 53 39 92t92.5 39t92.5 -39t39 -92t-39 -92t-92.5 -39t-92.5 39t-39 92zM346 440.5q0 -102.5 5 -165t25.5 -134t69 -106.5t124 -35t123.5 35 t68.5 106.5t26 134t5.5 165t-5.5 165t-26 133t-68.5 105.5t-123.5 35t-124 -35t-69 -105.5t-25.5 -133t-5 -165zM617 1319q0 53 39 92t92 39t92 -39t39 -92t-39 -92t-92 -39t-92 39t-39 92z" />
<glyph unicode="&#xf7;" horiz-adv-x="1214" d="M115 473v37h983v-37h-983zM461 168q0 59 43 102t102.5 43t102.5 -43t43 -102t-43 -102t-102.5 -43t-102.5 43t-43 102zM461 815q0 59 43 102.5t102.5 43.5t102.5 -43.5t43 -102.5t-43 -102t-102.5 -43t-102.5 43t-43 102z" />
<glyph unicode="&#xf8;" d="M70 440q0 190 145 328.5t354 138.5q102 0 191 -37l84 162l28 -12l-84 -162q127 -55 204 -169t77 -249q0 -193 -145.5 -331t-354.5 -138q-121 0 -215 47l-86 -168l-28 13l88 170q-119 59 -188.5 168.5t-69.5 238.5zM346 440q0 -213 37 -301l344 666q-51 74 -158 74 q-76 0 -124 -35t-68.5 -105.5t-25.5 -133t-5 -165.5zM397 100q47 -100 172 -100q76 0 124 35t68.5 106.5t26 134t5.5 164.5q-1 242 -48 334z" />
<glyph unicode="&#xf9;" horiz-adv-x="1251" d="M55 850v29h387v-650q0 -186 140 -186q92 0 151.5 82t59.5 197v528h-136v29h385v-850h136v-29h-381v166h-4q-33 -86 -120 -135t-186 -49q-147 0 -220.5 65.5t-73.5 210.5v592h-138zM381 1446q0 29 23.5 45t43.5 16q54 0 87 -63l180 -361h-27l-289 308q-18 20 -18 55z" />
<glyph unicode="&#xfa;" horiz-adv-x="1251" d="M55 850v29h387v-650q0 -186 140 -186q92 0 151.5 82t59.5 197v528h-136v29h385v-850h136v-29h-381v166h-4q-33 -86 -120 -135t-186 -49q-147 0 -220.5 65.5t-73.5 210.5v592h-138zM539 1083l180 361q33 63 86 63q20 0 43.5 -16t23.5 -45q0 -35 -18 -55l-289 -308h-26z " />
<glyph unicode="&#xfb;" horiz-adv-x="1251" d="M55 850v29h387v-650q0 -186 140 -186q92 0 151.5 82t59.5 197v528h-136v29h385v-850h136v-29h-381v166h-4q-33 -86 -120 -135t-186 -49q-147 0 -220.5 65.5t-73.5 210.5v592h-138zM330 1083l223 404h149l222 -404h-25l-272 260l-273 -260h-24z" />
<glyph unicode="&#xfc;" horiz-adv-x="1251" d="M55 850v29h387v-650q0 -186 140 -186q92 0 151.5 82t59.5 197v528h-136v29h385v-850h136v-29h-381v166h-4q-33 -86 -120 -135t-186 -49q-147 0 -220.5 65.5t-73.5 210.5v592h-138zM309 1319q0 53 39 92t92.5 39t92.5 -39t39 -92t-39 -92t-92.5 -39t-92.5 39t-39 92z M666 1319q0 53 39 92t92 39t92 -39t39 -92t-39 -92t-92 -39t-92 39t-39 92z" />
<glyph unicode="&#xfd;" horiz-adv-x="985" d="M-68 -422q0 55 37 84t94 29q43 0 76 -22.5t33 -63.5q0 -27 -13.5 -59.5t-13.5 -53.5q0 -45 41 -45q47 0 91.5 50t64.5 94t49 116l88 219l-385 924h-110v29h522v-29h-144l250 -592l260 592h-170v29h297v-29h-94q-174 -375 -335.5 -779.5t-196.5 -480.5q-43 -92 -96.5 -135 t-133.5 -43q-92 0 -151.5 45t-59.5 121zM455 1083l180 361q33 63 86 63q20 0 43.5 -16t23.5 -45q0 -35 -18 -55l-289 -308h-26z" />
<glyph unicode="&#xfe;" horiz-adv-x="1214" d="M63 -545h136v1993h-136v29h386v-742h4q63 172 237 172q113 0 202 -45t140 -116.5t78 -150.5t27 -155q0 -188 -126 -328.5t-321 -140.5q-170 0 -237 176h-4v-692h139v-28h-525v28zM449 438q0 -53 2 -93t9 -96t23.5 -95t42 -77t67.5 -57.5t97 -19.5q104 0 137 105.5 t33 332.5q0 248 -41 344.5t-145 96.5q-225 -1 -225 -441z" />
<glyph unicode="&#xff;" horiz-adv-x="985" d="M-68 -422q0 55 37 84t94 29q43 0 76 -22.5t33 -63.5q0 -27 -13.5 -59.5t-13.5 -53.5q0 -45 41 -45q47 0 91.5 50t64.5 94t49 116l88 219l-385 924h-110v29h522v-29h-144l250 -592l260 592h-170v29h297v-29h-94q-174 -375 -335.5 -779.5t-196.5 -480.5q-43 -92 -96.5 -135 t-133.5 -43q-92 0 -151.5 45t-59.5 121zM204 1319q0 53 39 92t92.5 39t92.5 -39t39 -92t-39 -92t-92.5 -39t-92.5 39t-39 92zM561 1319q0 53 39 92t92 39t92 -39t39 -92t-39 -92t-92 -39t-92 39t-39 92z" />
<glyph unicode="&#x152;" horiz-adv-x="2238" d="M100 713q0 315 235.5 536t536.5 221q61 0 186.5 -6t186.5 -6h840v-350h-27q-102 322 -387 322h-325v-633h114q141 0 209 76.5t100 228.5h27v-637h-27q-33 143 -95 223t-191 80h-137v-739h335q180 0 299 115.5t162 304.5h27v-449h-975q-53 0 -159.5 -6t-160.5 -6 q-152 0 -282.5 48t-218.5 126t-151.5 175t-92.5 192.5t-29 183.5zM434 717q0 -393 97.5 -547t342.5 -154q93 1 175 19v1388q-102 18 -179 19q-86 0 -153.5 -21.5t-113.5 -55.5t-77.5 -92.5t-49 -113.5t-28 -137t-12.5 -146.5t-2 -158.5z" />
<glyph unicode="&#x153;" horiz-adv-x="1744" d="M74 440q0 190 145.5 328.5t353.5 138.5q219 0 361 -147q141 147 338 147q158 0 278.5 -100t120.5 -293h-604v-92q0 -70 3 -120t18.5 -111.5t42 -99.5t76.5 -64.5t120 -26.5q76 0 137.5 29.5t94 72.5t51 78t20.5 58l29 -11q-27 -98 -115 -177t-244 -79q-229 0 -372 140 q-150 -139 -355 -140q-209 0 -354 138.5t-145 330.5zM350 440.5q0 -102.5 5 -165t25.5 -134t69 -106.5t124 -35t123.5 35t68.5 106.5t26 134t5.5 165t-5.5 165t-26 133t-68.5 105.5t-123.5 35t-124 -35t-69 -105.5t-25.5 -133t-5 -165zM1067 543h328v137q0 199 -133 199 q-45 0 -78 -13.5t-53.5 -45.5t-33 -56.5t-18.5 -74.5t-8 -71.5t-4 -74.5z" />
<glyph unicode="&#x178;" horiz-adv-x="1441" d="M-33 1430v28h662v-28h-162l418 -715l377 715h-179v28h392v-28h-179l-395 -752v-649h191v-29h-676v29h188v571l-475 830h-162zM473 1755q0 53 39 92t92.5 39t92.5 -39t39 -92t-39 -92t-92.5 -39t-92.5 39t-39 92zM830 1755q0 53 39 92t92 39t92 -39t39 -92t-39 -92 t-92 -39t-92 39t-39 92z" />
<glyph unicode="&#x2c6;" horiz-adv-x="569" d="M-12 1083l223 404h149l222 -404h-25l-272 260l-273 -260h-24z" />
<glyph unicode="&#x2dc;" horiz-adv-x="569" d="M-35 1165q29 78 39 104.5t25.5 53.5t33.5 43q45 37 105 37q20 0 166.5 -41t159.5 -41q35 0 56 36t25 58h29q-10 -49 -29.5 -95t-64.5 -94t-102 -48q-43 0 -172.5 42t-159.5 42q-40 0 -58 -41l-24 -56h-29z" />
<glyph unicode="&#x2000;" horiz-adv-x="992" />
<glyph unicode="&#x2001;" horiz-adv-x="1984" />
<glyph unicode="&#x2002;" horiz-adv-x="992" />
<glyph unicode="&#x2003;" horiz-adv-x="1984" />
<glyph unicode="&#x2004;" horiz-adv-x="661" />
<glyph unicode="&#x2005;" horiz-adv-x="496" />
<glyph unicode="&#x2006;" horiz-adv-x="330" />
<glyph unicode="&#x2007;" horiz-adv-x="330" />
<glyph unicode="&#x2008;" horiz-adv-x="248" />
<glyph unicode="&#x2009;" horiz-adv-x="396" />
<glyph unicode="&#x200a;" horiz-adv-x="110" />
<glyph unicode="&#x2010;" horiz-adv-x="757" d="M186 340v201h385v-201h-385z" />
<glyph unicode="&#x2011;" horiz-adv-x="757" d="M186 340v201h385v-201h-385z" />
<glyph unicode="&#x2012;" horiz-adv-x="757" d="M186 340v201h385v-201h-385z" />
<glyph unicode="&#x2013;" horiz-adv-x="1024" d="M0 432v29h1024v-29h-1024z" />
<glyph unicode="&#x2014;" horiz-adv-x="2048" d="M266 432v29h1516v-29h-1516z" />
<glyph unicode="&#x2018;" horiz-adv-x="569" d="M113 1094q0 61 20.5 116.5t46 93t72.5 77.5t74.5 59.5t76.5 50.5l15 -27q-115 -80 -167 -136t-52 -124q0 -57 30 -84q31 20 86 21q51 0 96.5 -37t45.5 -108.5t-47.5 -108.5t-108.5 -37q-82 0 -135 65.5t-53 178.5z" />
<glyph unicode="&#x2019;" horiz-adv-x="569" d="M113 1345.5q0 71.5 47 108.5t108 37q82 0 135.5 -65.5t53.5 -178.5q0 -61 -20.5 -116.5t-46 -93.5t-73 -77.5t-75 -59t-76.5 -50.5l-14 27q115 80 167 136t52 124q0 57 -31 84q-31 -20 -86 -21q-51 0 -96 37t-45 108.5z" />
<glyph unicode="&#x201a;" horiz-adv-x="569" d="M113 125q0 72 47 108.5t108 36.5q82 0 135.5 -65.5t53.5 -177.5q0 -61 -20.5 -116.5t-46 -93.5t-73 -78t-75 -59.5t-76.5 -50.5l-14 27q115 80 167 136t52 124q0 57 -31 84q-31 -20 -86 -20q-51 0 -96 36.5t-45 108.5z" />
<glyph unicode="&#x201c;" horiz-adv-x="948" d="M90 1094q0 61 20.5 116.5t46 93t72.5 77.5t75 59.5t77 50.5l14 -27q-115 -80 -167 -136t-52 -124q0 -57 31 -84q31 20 86 21q51 0 96 -37t45 -108.5t-47 -108.5t-108 -37q-82 0 -135.5 65.5t-53.5 178.5zM514 1094q0 61 20.5 116.5t46 93t72.5 77.5t75 59.5t77 50.5 l14 -27q-115 -80 -167 -136t-52 -124q0 -57 31 -84q31 20 86 21q51 0 96 -37t45 -108.5t-47 -108.5t-109 -37q-82 0 -135 65.5t-53 178.5z" />
<glyph unicode="&#x201d;" horiz-adv-x="948" d="M90 1345.5q0 71.5 47 108.5t109 37q82 0 135 -65.5t53 -178.5q0 -61 -20.5 -116.5t-46 -93.5t-72.5 -77.5t-75 -59t-77 -50.5l-14 27q115 80 167 136t52 124q0 57 -31 84q-31 -20 -86 -21q-51 0 -96 37t-45 108.5zM514 1345.5q0 71.5 47 108.5t109 37q82 0 135 -65.5 t53 -178.5q0 -61 -20.5 -116.5t-46 -93.5t-72.5 -77.5t-75 -59t-77 -50.5l-14 27q115 80 167 136t52 124q0 57 -31 84q-31 -20 -86 -21q-51 0 -96 37t-45 108.5z" />
<glyph unicode="&#x201e;" horiz-adv-x="948" d="M90 125q0 72 47 108.5t109 36.5q82 0 135 -65.5t53 -177.5q0 -61 -20.5 -116.5t-46 -93.5t-72.5 -78t-75 -59.5t-77 -50.5l-14 27q115 80 167 136t52 124q0 57 -31 84q-31 -20 -86 -20q-51 0 -96 36.5t-45 108.5zM514 125q0 72 47 108.5t109 36.5q82 0 135 -65.5 t53 -177.5q0 -61 -20.5 -116.5t-46 -93.5t-72.5 -78t-75 -59.5t-77 -50.5l-14 27q115 80 167 136t52 124q0 57 -31 84q-31 -20 -86 -20q-51 0 -96 36.5t-45 108.5z" />
<glyph unicode="&#x2022;" horiz-adv-x="1024" d="M147 729.5q0 151.5 106.5 258t258.5 106.5t258.5 -106.5t106.5 -258t-106.5 -258t-258.5 -106.5t-258.5 106.5t-106.5 258z" />
<glyph unicode="&#x2026;" horiz-adv-x="2048" d="M197 125q0 59 43 102t102 43t102 -43t43 -102t-43 -102t-102 -43t-102 43t-43 102zM879 125q0 59 43 102t102 43t102 -43t43 -102t-43 -102t-102 -43t-102 43t-43 102zM1561 125q0 59 43 102t102 43t102 -43t43 -102t-43 -102t-102 -43t-102 43t-43 102z" />
<glyph unicode="&#x202f;" horiz-adv-x="396" />
<glyph unicode="&#x2039;" horiz-adv-x="530" d="M88 440q0 61 28.5 110.5t62.5 77t92.5 52.5t87 32t77.5 17l6 -24q-39 -10 -59.5 -19.5t-48 -36t-40.5 -79t-13 -130.5q0 -137 37.5 -189t123.5 -75l-6 -24q-49 10 -81.5 19t-88 32.5t-90.5 51.5t-61.5 77t-26.5 108z" />
<glyph unicode="&#x203a;" horiz-adv-x="530" d="M88 176q39 10 59.5 19.5t48 36t41 78.5t13.5 130q0 137 -38 189.5t-124 75.5l6 24q49 -10 82 -19.5t88 -33t90 -51t61.5 -76.5t26.5 -109q0 -61 -28.5 -110t-62.5 -77t-92 -52.5t-87 -31.5t-78 -17z" />
<glyph unicode="&#x205f;" horiz-adv-x="496" />
<glyph unicode="&#x2122;" horiz-adv-x="2009" d="M119 1245v213h692v-213h-23q-12 53 -33.5 91t-42 56.5t-52 29t-53 12.5t-56.5 2v-754h104v-23h-381v23h105v754q-35 0 -56.5 -2t-53 -12.5t-52 -29t-42 -56.5t-34.5 -91h-22zM872 659v23h99v754h-99v22h293l195 -543l196 543h283v-22h-98v-754h98v-23h-369v23h99v731 l-275 -754h-22l-275 754v-731h99v-23h-224z" />
<glyph unicode="&#x25fc;" horiz-adv-x="880" d="M0 0v881h881v-881h-881z" />
</font>
</defs>
</svg>
